<svg width="1015" height="753" viewBox="0 0 1015 753" fill="none" xmlns="http://www.w3.org/2000/svg">
<g opacity="0.2" filter="url(#filter0_f_175_198)">
<ellipse cx="512.5" cy="320" rx="670.5" ry="350" fill="#338AF3"/>
</g>
<path d="M33.0349 556C34.5302 556 35.6622 556.63 36.4308 557.891C37.2134 559.138 37.6047 560.953 37.6047 563.336C37.6047 565.719 37.2134 567.541 36.4308 568.802C35.6622 570.063 34.5302 570.693 33.0349 570.693C31.5536 570.693 30.4216 570.063 29.639 568.802C28.8564 567.541 28.4651 565.719 28.4651 563.336C28.4651 560.967 28.8564 559.152 29.639 557.891C30.4216 556.63 31.5536 556 33.0349 556ZM29.9534 563.336C29.9534 565.026 30.1072 566.35 30.4146 567.306L35.0683 558.099C34.5791 557.448 33.9013 557.122 33.0349 557.122C32.0706 557.122 31.316 557.635 30.771 558.66C30.2259 559.672 29.9534 561.23 29.9534 563.336ZM33.0349 569.55C34.0131 569.55 34.7748 569.044 35.3198 568.033C35.8648 567.008 36.1373 565.442 36.1373 563.336C36.1373 561.549 35.9627 560.163 35.6133 559.18L30.9596 568.469C31.4627 569.19 32.1545 569.55 33.0349 569.55Z" fill="url(#paint0_linear_175_198)" fill-opacity="0.6"/>
<path d="M34.2926 593.135H37.3741V594.236H29.3874V593.135H32.9511V581.455L29.5551 583.471L28.9682 582.536L33.1607 579.959H34.2926V593.135Z" fill="url(#paint1_linear_175_198)" fill-opacity="0.6"/>
<path d="M33.0349 603.502C34.5302 603.502 35.6622 604.133 36.4308 605.393C37.2134 606.64 37.6047 608.455 37.6047 610.838C37.6047 613.221 37.2134 615.043 36.4308 616.304C35.6622 617.565 34.5302 618.195 33.0349 618.195C31.5536 618.195 30.4216 617.565 29.639 616.304C28.8564 615.043 28.4651 613.221 28.4651 610.838C28.4651 608.469 28.8564 606.654 29.639 605.393C30.4216 604.133 31.5536 603.502 33.0349 603.502ZM29.9534 610.838C29.9534 612.529 30.1072 613.852 30.4146 614.808L35.0683 605.601C34.5791 604.95 33.9013 604.624 33.0349 604.624C32.0706 604.624 31.316 605.137 30.771 606.162C30.2259 607.174 29.9534 608.732 29.9534 610.838ZM33.0349 617.052C34.0131 617.052 34.7748 616.546 35.3198 615.535C35.8648 614.51 36.1373 612.944 36.1373 610.838C36.1373 609.051 35.9627 607.665 35.6133 606.682L30.9596 615.971C31.4627 616.692 32.1545 617.052 33.0349 617.052Z" fill="url(#paint2_linear_175_198)" fill-opacity="0.6"/>
<path d="M34.2926 640.637H37.3741V641.738H29.3874V640.637H32.9511V628.957L29.5551 630.973L28.9682 630.038L33.1607 627.461H34.2926V640.637Z" fill="url(#paint3_linear_175_198)" fill-opacity="0.6"/>
<path d="M34.2926 664.388H37.3741V665.489H29.3874V664.388H32.9511V652.708L29.5551 654.724L28.9682 653.789L33.1607 651.212H34.2926V664.388Z" fill="url(#paint4_linear_175_198)" fill-opacity="0.6"/>
<path d="M33.0349 674.755C34.5302 674.755 35.6622 675.386 36.4308 676.646C37.2134 677.893 37.6047 679.708 37.6047 682.091C37.6047 684.474 37.2134 686.296 36.4308 687.557C35.6622 688.818 34.5302 689.448 33.0349 689.448C31.5536 689.448 30.4216 688.818 29.639 687.557C28.8564 686.296 28.4651 684.474 28.4651 682.091C28.4651 679.722 28.8564 677.907 29.639 676.646C30.4216 675.386 31.5536 674.755 33.0349 674.755ZM29.9534 682.091C29.9534 683.782 30.1072 685.105 30.4146 686.061L35.0683 676.854C34.5791 676.203 33.9013 675.878 33.0349 675.878C32.0706 675.878 31.316 676.39 30.771 677.415C30.2259 678.427 29.9534 679.985 29.9534 682.091ZM33.0349 688.305C34.0131 688.305 34.7748 687.8 35.3198 686.788C35.8648 685.763 36.1373 684.197 36.1373 682.091C36.1373 680.304 35.9627 678.919 35.6133 677.935L30.9596 687.225C31.4627 687.945 32.1545 688.305 33.0349 688.305Z" fill="url(#paint5_linear_175_198)" fill-opacity="0.6"/>
<path d="M34.2926 711.89H37.3741V712.992H29.3874V711.89H32.9511V700.21L29.5551 702.226L28.9682 701.291L33.1607 698.714H34.2926V711.89Z" fill="url(#paint6_linear_175_198)" fill-opacity="0.6"/>
<path d="M33.0349 722.257C34.5302 722.257 35.6622 722.888 36.4308 724.149C37.2134 725.396 37.6047 727.211 37.6047 729.594C37.6047 731.977 37.2134 733.798 36.4308 735.059C35.6622 736.32 34.5302 736.95 33.0349 736.95C31.5536 736.95 30.4216 736.32 29.639 735.059C28.8564 733.798 28.4651 731.977 28.4651 729.594C28.4651 727.224 28.8564 725.409 29.639 724.149C30.4216 722.888 31.5536 722.257 33.0349 722.257ZM29.9534 729.594C29.9534 731.284 30.1072 732.607 30.4146 733.563L35.0683 724.356C34.5791 723.705 33.9013 723.38 33.0349 723.38C32.0706 723.38 31.316 723.892 30.771 724.918C30.2259 725.929 29.9534 727.488 29.9534 729.594ZM33.0349 735.807C34.0131 735.807 34.7748 735.302 35.3198 734.29C35.8648 733.265 36.1373 731.699 36.1373 729.594C36.1373 727.806 35.9627 726.421 35.6133 725.437L30.9596 734.727C31.4627 735.447 32.1545 735.807 33.0349 735.807Z" fill="url(#paint7_linear_175_198)" fill-opacity="0.6"/>
<path d="M33.0349 746.008C34.5302 746.008 35.6622 746.639 36.4308 747.9C37.2134 749.147 37.6047 750.962 37.6047 753.345C37.6047 755.728 37.2134 757.549 36.4308 758.81C35.6622 760.071 34.5302 760.701 33.0349 760.701C31.5536 760.701 30.4216 760.071 29.639 758.81C28.8564 757.549 28.4651 755.728 28.4651 753.345C28.4651 750.975 28.8564 749.16 29.639 747.9C30.4216 746.639 31.5536 746.008 33.0349 746.008ZM29.9534 753.345C29.9534 755.035 30.1072 756.358 30.4146 757.314L35.0683 748.107C34.5791 747.456 33.9013 747.131 33.0349 747.131C32.0706 747.131 31.316 747.643 30.771 748.669C30.2259 749.68 29.9534 751.239 29.9534 753.345ZM33.0349 759.558C34.0131 759.558 34.7748 759.053 35.3198 758.041C35.8648 757.016 36.1373 755.451 36.1373 753.345C36.1373 751.557 35.9627 750.172 35.6133 749.188L30.9596 758.478C31.4627 759.198 32.1545 759.558 33.0349 759.558Z" fill="url(#paint8_linear_175_198)" fill-opacity="0.6"/>
<path d="M34.2926 783.143H37.3741V784.245H29.3874V783.143H32.9511V771.464L29.5551 773.48L28.9682 772.544L33.1607 769.967H34.2926V783.143Z" fill="url(#paint9_linear_175_198)" fill-opacity="0.6"/>
<path d="M33.0349 793.511C34.5302 793.511 35.6622 794.141 36.4308 795.402C37.2134 796.649 37.6047 798.464 37.6047 800.847C37.6047 803.23 37.2134 805.052 36.4308 806.312C35.6622 807.573 34.5302 808.204 33.0349 808.204C31.5536 808.204 30.4216 807.573 29.639 806.312C28.8564 805.052 28.4651 803.23 28.4651 800.847C28.4651 798.478 28.8564 796.663 29.639 795.402C30.4216 794.141 31.5536 793.511 33.0349 793.511ZM29.9534 800.847C29.9534 802.537 30.1072 803.86 30.4146 804.816L35.0683 795.61C34.5791 794.958 33.9013 794.633 33.0349 794.633C32.0706 794.633 31.316 795.145 30.771 796.171C30.2259 797.182 29.9534 798.741 29.9534 800.847ZM33.0349 807.061C34.0131 807.061 34.7748 806.555 35.3198 805.543C35.8648 804.518 36.1373 802.953 36.1373 800.847C36.1373 799.059 35.9627 797.674 35.6133 796.69L30.9596 805.98C31.4627 806.7 32.1545 807.061 33.0349 807.061Z" fill="url(#paint10_linear_175_198)" fill-opacity="0.6"/>
<path d="M34.2926 830.645H37.3741V831.747H29.3874V830.645H32.9511V818.966L29.5551 820.982L28.9682 820.046L33.1607 817.469H34.2926V830.645Z" fill="url(#paint11_linear_175_198)" fill-opacity="0.6"/>
<path d="M34.2926 854.396H37.3741V855.498H29.3874V854.396H32.9511V842.717L29.5551 844.733L28.9682 843.798L33.1607 841.221H34.2926V854.396Z" fill="url(#paint12_linear_175_198)" fill-opacity="0.6"/>
<path d="M71.9651 603.502C73.4604 603.502 74.5924 604.133 75.361 605.393C76.1436 606.64 76.5349 608.455 76.5349 610.838C76.5349 613.221 76.1436 615.043 75.361 616.304C74.5924 617.565 73.4604 618.195 71.9651 618.195C70.4838 618.195 69.3518 617.565 68.5692 616.304C67.7866 615.043 67.3953 613.221 67.3953 610.838C67.3953 608.469 67.7866 606.654 68.5692 605.393C69.3518 604.133 70.4838 603.502 71.9651 603.502ZM68.8836 610.838C68.8836 612.529 69.0374 613.852 69.3448 614.808L73.9985 605.601C73.5093 604.95 72.8315 604.624 71.9651 604.624C71.0008 604.624 70.2462 605.137 69.7012 606.162C69.1561 607.174 68.8836 608.732 68.8836 610.838ZM71.9651 617.052C72.9433 617.052 73.705 616.546 74.25 615.535C74.795 614.51 75.0675 612.944 75.0675 610.838C75.0675 609.051 74.8928 607.665 74.5435 606.682L69.8898 615.971C70.3929 616.692 71.0847 617.052 71.9651 617.052Z" fill="url(#paint13_linear_175_198)" fill-opacity="0.6"/>
<path d="M73.2228 640.637H76.3043V641.738H68.3176V640.637H71.8812V628.957L68.4853 630.973L67.8984 630.038L72.0909 627.461H73.2228V640.637Z" fill="url(#paint14_linear_175_198)" fill-opacity="0.6"/>
<path d="M71.9651 651.004C73.4604 651.004 74.5924 651.635 75.361 652.895C76.1436 654.142 76.5349 655.957 76.5349 658.34C76.5349 660.723 76.1436 662.545 75.361 663.806C74.5924 665.067 73.4604 665.697 71.9651 665.697C70.4838 665.697 69.3518 665.067 68.5692 663.806C67.7866 662.545 67.3953 660.723 67.3953 658.34C67.3953 655.971 67.7866 654.156 68.5692 652.895C69.3518 651.635 70.4838 651.004 71.9651 651.004ZM68.8836 658.34C68.8836 660.031 69.0374 661.354 69.3448 662.31L73.9985 653.103C73.5093 652.452 72.8315 652.126 71.9651 652.126C71.0008 652.126 70.2462 652.639 69.7012 653.664C69.1561 654.676 68.8836 656.234 68.8836 658.34ZM71.9651 664.554C72.9433 664.554 73.705 664.049 74.25 663.037C74.795 662.012 75.0675 660.446 75.0675 658.34C75.0675 656.553 74.8928 655.168 74.5435 654.184L69.8898 663.474C70.3929 664.194 71.0847 664.554 71.9651 664.554Z" fill="url(#paint15_linear_175_198)" fill-opacity="0.6"/>
<path d="M71.9651 674.755C73.4604 674.755 74.5924 675.386 75.361 676.646C76.1436 677.893 76.5349 679.708 76.5349 682.091C76.5349 684.474 76.1436 686.296 75.361 687.557C74.5924 688.818 73.4604 689.448 71.9651 689.448C70.4838 689.448 69.3518 688.818 68.5692 687.557C67.7866 686.296 67.3953 684.474 67.3953 682.091C67.3953 679.722 67.7866 677.907 68.5692 676.646C69.3518 675.386 70.4838 674.755 71.9651 674.755ZM68.8836 682.091C68.8836 683.782 69.0374 685.105 69.3448 686.061L73.9985 676.854C73.5093 676.203 72.8315 675.878 71.9651 675.878C71.0008 675.878 70.2462 676.39 69.7012 677.415C69.1561 678.427 68.8836 679.985 68.8836 682.091ZM71.9651 688.305C72.9433 688.305 73.705 687.8 74.25 686.788C74.795 685.763 75.0675 684.197 75.0675 682.091C75.0675 680.304 74.8928 678.919 74.5435 677.935L69.8898 687.225C70.3929 687.945 71.0847 688.305 71.9651 688.305Z" fill="url(#paint16_linear_175_198)" fill-opacity="0.6"/>
<path d="M73.2228 711.89H76.3043V712.992H68.3176V711.89H71.8812V700.21L68.4853 702.226L67.8984 701.291L72.0909 698.714H73.2228V711.89Z" fill="url(#paint17_linear_175_198)" fill-opacity="0.6"/>
<path d="M71.9651 722.257C73.4604 722.257 74.5924 722.888 75.361 724.149C76.1436 725.396 76.5349 727.211 76.5349 729.594C76.5349 731.977 76.1436 733.798 75.361 735.059C74.5924 736.32 73.4604 736.95 71.9651 736.95C70.4838 736.95 69.3518 736.32 68.5692 735.059C67.7866 733.798 67.3953 731.977 67.3953 729.594C67.3953 727.224 67.7866 725.409 68.5692 724.149C69.3518 722.888 70.4838 722.257 71.9651 722.257ZM68.8836 729.594C68.8836 731.284 69.0374 732.607 69.3448 733.563L73.9985 724.356C73.5093 723.705 72.8315 723.38 71.9651 723.38C71.0008 723.38 70.2462 723.892 69.7012 724.918C69.1561 725.929 68.8836 727.488 68.8836 729.594ZM71.9651 735.807C72.9433 735.807 73.705 735.302 74.25 734.29C74.795 733.265 75.0675 731.699 75.0675 729.594C75.0675 727.806 74.8928 726.421 74.5435 725.437L69.8898 734.727C70.3929 735.447 71.0847 735.807 71.9651 735.807Z" fill="url(#paint18_linear_175_198)" fill-opacity="0.6"/>
<path d="M73.2228 759.392H76.3043V760.494H68.3176V759.392H71.8812V747.713L68.4853 749.728L67.8984 748.793L72.0909 746.216H73.2228V759.392Z" fill="url(#paint19_linear_175_198)" fill-opacity="0.6"/>
<path d="M71.9651 769.76C73.4604 769.76 74.5924 770.39 75.361 771.651C76.1436 772.898 76.5349 774.713 76.5349 777.096C76.5349 779.479 76.1436 781.301 75.361 782.561C74.5924 783.822 73.4604 784.453 71.9651 784.453C70.4838 784.453 69.3518 783.822 68.5692 782.561C67.7866 781.301 67.3953 779.479 67.3953 777.096C67.3953 774.726 67.7866 772.911 68.5692 771.651C69.3518 770.39 70.4838 769.76 71.9651 769.76ZM68.8836 777.096C68.8836 778.786 69.0374 780.109 69.3448 781.065L73.9985 771.859C73.5093 771.207 72.8315 770.882 71.9651 770.882C71.0008 770.882 70.2462 771.394 69.7012 772.42C69.1561 773.431 68.8836 774.99 68.8836 777.096ZM71.9651 783.31C72.9433 783.31 73.705 782.804 74.25 781.792C74.795 780.767 75.0675 779.202 75.0675 777.096C75.0675 775.308 74.8928 773.923 74.5435 772.939L69.8898 782.229C70.3929 782.949 71.0847 783.31 71.9651 783.31Z" fill="url(#paint20_linear_175_198)" fill-opacity="0.6"/>
<path d="M71.9651 793.511C73.4604 793.511 74.5924 794.141 75.361 795.402C76.1436 796.649 76.5349 798.464 76.5349 800.847C76.5349 803.23 76.1436 805.052 75.361 806.312C74.5924 807.573 73.4604 808.204 71.9651 808.204C70.4838 808.204 69.3518 807.573 68.5692 806.312C67.7866 805.052 67.3953 803.23 67.3953 800.847C67.3953 798.478 67.7866 796.663 68.5692 795.402C69.3518 794.141 70.4838 793.511 71.9651 793.511ZM68.8836 800.847C68.8836 802.537 69.0374 803.86 69.3448 804.816L73.9985 795.61C73.5093 794.958 72.8315 794.633 71.9651 794.633C71.0008 794.633 70.2462 795.145 69.7012 796.171C69.1561 797.182 68.8836 798.741 68.8836 800.847ZM71.9651 807.061C72.9433 807.061 73.705 806.555 74.25 805.543C74.795 804.518 75.0675 802.953 75.0675 800.847C75.0675 799.059 74.8928 797.674 74.5435 796.69L69.8898 805.98C70.3929 806.7 71.0847 807.061 71.9651 807.061Z" fill="url(#paint21_linear_175_198)" fill-opacity="0.6"/>
<path d="M73.2228 830.645H76.3043V831.747H68.3176V830.645H71.8812V818.966L68.4853 820.982L67.8984 820.046L72.0909 817.469H73.2228V830.645Z" fill="url(#paint22_linear_175_198)" fill-opacity="0.6"/>
<path d="M71.9651 841.013C73.4604 841.013 74.5924 841.643 75.361 842.904C76.1436 844.151 76.5349 845.966 76.5349 848.349C76.5349 850.732 76.1436 852.554 75.361 853.815C74.5924 855.075 73.4604 855.706 71.9651 855.706C70.4838 855.706 69.3518 855.075 68.5692 853.815C67.7866 852.554 67.3953 850.732 67.3953 848.349C67.3953 845.98 67.7866 844.165 68.5692 842.904C69.3518 841.643 70.4838 841.013 71.9651 841.013ZM68.8836 848.349C68.8836 850.039 69.0374 851.362 69.3448 852.318L73.9985 843.112C73.5093 842.461 72.8315 842.135 71.9651 842.135C71.0008 842.135 70.2462 842.648 69.7012 843.673C69.1561 844.684 68.8836 846.243 68.8836 848.349ZM71.9651 854.563C72.9433 854.563 73.705 854.057 74.25 853.046C74.795 852.02 75.0675 850.455 75.0675 848.349C75.0675 846.562 74.8928 845.176 74.5435 844.192L69.8898 853.482C70.3929 854.202 71.0847 854.563 71.9651 854.563Z" fill="url(#paint23_linear_175_198)" fill-opacity="0.6"/>
<path d="M73.2228 878.147H76.3043V879.249H68.3176V878.147H71.8812V866.468L68.4853 868.484L67.8984 867.549L72.0909 864.972H73.2228V878.147Z" fill="url(#paint24_linear_175_198)" fill-opacity="0.6"/>
<path d="M73.2228 901.899H76.3043V903H68.3176V901.899H71.8812V890.219L68.4853 892.235L67.8984 891.3L72.0909 888.723H73.2228V901.899Z" fill="url(#paint25_linear_175_198)" fill-opacity="0.6"/>
<path d="M13.5698 627.253C15.0651 627.253 16.1971 627.884 16.9657 629.144C17.7483 630.391 18.1396 632.206 18.1396 634.589C18.1396 636.972 17.7483 638.794 16.9657 640.055C16.1971 641.316 15.0651 641.946 13.5698 641.946C12.0885 641.946 10.9565 641.316 10.1739 640.055C9.3913 638.794 9 636.972 9 634.589C9 632.22 9.3913 630.405 10.1739 629.144C10.9565 627.884 12.0885 627.253 13.5698 627.253ZM10.4883 634.589C10.4883 636.28 10.6421 637.603 10.9495 638.559L15.6032 629.352C15.114 628.701 14.4363 628.375 13.5698 628.375C12.6055 628.375 11.8509 628.888 11.3059 629.913C10.7608 630.925 10.4883 632.483 10.4883 634.589ZM13.5698 640.803C14.5481 640.803 15.3097 640.297 15.8547 639.286C16.3997 638.261 16.6722 636.695 16.6722 634.589C16.6722 632.802 16.4976 631.417 16.1482 630.433L11.4945 639.722C11.9976 640.443 12.6894 640.803 13.5698 640.803Z" fill="url(#paint26_linear_175_198)" fill-opacity="0.6"/>
<path d="M13.5698 651.004C15.0651 651.004 16.1971 651.635 16.9657 652.895C17.7483 654.142 18.1396 655.957 18.1396 658.34C18.1396 660.723 17.7483 662.545 16.9657 663.806C16.1971 665.067 15.0651 665.697 13.5698 665.697C12.0885 665.697 10.9565 665.067 10.1739 663.806C9.3913 662.545 9 660.723 9 658.34C9 655.971 9.3913 654.156 10.1739 652.895C10.9565 651.635 12.0885 651.004 13.5698 651.004ZM10.4883 658.34C10.4883 660.031 10.6421 661.354 10.9495 662.31L15.6032 653.103C15.114 652.452 14.4363 652.126 13.5698 652.126C12.6055 652.126 11.8509 652.639 11.3059 653.664C10.7608 654.676 10.4883 656.234 10.4883 658.34ZM13.5698 664.554C14.5481 664.554 15.3097 664.049 15.8547 663.037C16.3997 662.012 16.6722 660.446 16.6722 658.34C16.6722 656.553 16.4976 655.168 16.1482 654.184L11.4945 663.474C11.9976 664.194 12.6894 664.554 13.5698 664.554Z" fill="url(#paint27_linear_175_198)" fill-opacity="0.6"/>
<path d="M14.8276 688.139H17.909V689.24H9.92235V688.139H13.486V676.459L10.09 678.475L9.5031 677.54L13.6956 674.963H14.8276V688.139Z" fill="url(#paint28_linear_175_198)" fill-opacity="0.6"/>
<path d="M13.5698 698.506C15.0651 698.506 16.1971 699.137 16.9657 700.398C17.7483 701.644 18.1396 703.459 18.1396 705.842C18.1396 708.225 17.7483 710.047 16.9657 711.308C16.1971 712.569 15.0651 713.199 13.5698 713.199C12.0885 713.199 10.9565 712.569 10.1739 711.308C9.3913 710.047 9 708.225 9 705.842C9 703.473 9.3913 701.658 10.1739 700.398C10.9565 699.137 12.0885 698.506 13.5698 698.506ZM10.4883 705.842C10.4883 707.533 10.6421 708.856 10.9495 709.812L15.6032 700.605C15.114 699.954 14.4363 699.629 13.5698 699.629C12.6055 699.629 11.8509 700.141 11.3059 701.166C10.7608 702.178 10.4883 703.737 10.4883 705.842ZM13.5698 712.056C14.5481 712.056 15.3097 711.551 15.8547 710.539C16.3997 709.514 16.6722 707.948 16.6722 705.842C16.6722 704.055 16.4976 702.67 16.1482 701.686L11.4945 710.976C11.9976 711.696 12.6894 712.056 13.5698 712.056Z" fill="url(#paint29_linear_175_198)" fill-opacity="0.6"/>
<path d="M14.8276 735.641H17.909V736.743H9.92235V735.641H13.486V723.962L10.09 725.977L9.5031 725.042L13.6956 722.465H14.8276V735.641Z" fill="url(#paint30_linear_175_198)" fill-opacity="0.6"/>
<path d="M14.8276 759.392H17.909V760.494H9.92235V759.392H13.486V747.713L10.09 749.728L9.5031 748.793L13.6956 746.216H14.8276V759.392Z" fill="url(#paint31_linear_175_198)" fill-opacity="0.6"/>
<path d="M53.7577 593.135H56.8392V594.236H48.8525V593.135H52.4162V581.455L49.0202 583.471L48.4333 582.536L52.6258 579.959H53.7577V593.135Z" fill="url(#paint32_linear_175_198)" fill-opacity="0.6"/>
<path d="M52.5 603.502C53.9953 603.502 55.1273 604.133 55.8959 605.393C56.6785 606.64 57.0698 608.455 57.0698 610.838C57.0698 613.221 56.6785 615.043 55.8959 616.304C55.1273 617.565 53.9953 618.195 52.5 618.195C51.0187 618.195 49.8867 617.565 49.1041 616.304C48.3215 615.043 47.9302 613.221 47.9302 610.838C47.9302 608.469 48.3215 606.654 49.1041 605.393C49.8867 604.133 51.0187 603.502 52.5 603.502ZM49.4185 610.838C49.4185 612.529 49.5723 613.852 49.8797 614.808L54.5334 605.601C54.0442 604.95 53.3664 604.624 52.5 604.624C51.5357 604.624 50.7811 605.137 50.2361 606.162C49.691 607.174 49.4185 608.732 49.4185 610.838ZM52.5 617.052C53.4782 617.052 54.2399 616.546 54.7849 615.535C55.3299 614.51 55.6024 612.944 55.6024 610.838C55.6024 609.051 55.4277 607.665 55.0784 606.682L50.4247 615.971C50.9278 616.692 51.6196 617.052 52.5 617.052Z" fill="url(#paint33_linear_175_198)" fill-opacity="0.6"/>
<path d="M53.7577 640.637H56.8392V641.738H48.8525V640.637H52.4162V628.957L49.0202 630.973L48.4333 630.038L52.6258 627.461H53.7577V640.637Z" fill="url(#paint34_linear_175_198)" fill-opacity="0.6"/>
<path d="M53.7577 664.388H56.8392V665.489H48.8525V664.388H52.4162V652.708L49.0202 654.724L48.4333 653.789L52.6258 651.212H53.7577V664.388Z" fill="url(#paint35_linear_175_198)" fill-opacity="0.6"/>
<path d="M52.5 674.755C53.9953 674.755 55.1273 675.386 55.8959 676.646C56.6785 677.893 57.0698 679.708 57.0698 682.091C57.0698 684.474 56.6785 686.296 55.8959 687.557C55.1273 688.818 53.9953 689.448 52.5 689.448C51.0187 689.448 49.8867 688.818 49.1041 687.557C48.3215 686.296 47.9302 684.474 47.9302 682.091C47.9302 679.722 48.3215 677.907 49.1041 676.646C49.8867 675.386 51.0187 674.755 52.5 674.755ZM49.4185 682.091C49.4185 683.782 49.5723 685.105 49.8797 686.061L54.5334 676.854C54.0442 676.203 53.3664 675.878 52.5 675.878C51.5357 675.878 50.7811 676.39 50.2361 677.415C49.691 678.427 49.4185 679.985 49.4185 682.091ZM52.5 688.305C53.4782 688.305 54.2399 687.8 54.7849 686.788C55.3299 685.763 55.6024 684.197 55.6024 682.091C55.6024 680.304 55.4277 678.919 55.0784 677.935L50.4247 687.225C50.9278 687.945 51.6196 688.305 52.5 688.305Z" fill="url(#paint36_linear_175_198)" fill-opacity="0.6"/>
<path d="M53.7577 711.89H56.8392V712.992H48.8525V711.89H52.4162V700.21L49.0202 702.226L48.4333 701.291L52.6258 698.714H53.7577V711.89Z" fill="url(#paint37_linear_175_198)" fill-opacity="0.6"/>
<path d="M53.7577 735.641H56.8392V736.743H48.8525V735.641H52.4162V723.962L49.0202 725.977L48.4333 725.042L52.6258 722.465H53.7577V735.641Z" fill="url(#paint38_linear_175_198)" fill-opacity="0.6"/>
<path d="M52.5 746.008C53.9953 746.008 55.1273 746.639 55.8959 747.9C56.6785 749.147 57.0698 750.962 57.0698 753.345C57.0698 755.728 56.6785 757.549 55.8959 758.81C55.1273 760.071 53.9953 760.701 52.5 760.701C51.0187 760.701 49.8867 760.071 49.1041 758.81C48.3215 757.549 47.9302 755.728 47.9302 753.345C47.9302 750.975 48.3215 749.16 49.1041 747.9C49.8867 746.639 51.0187 746.008 52.5 746.008ZM49.4185 753.345C49.4185 755.035 49.5723 756.358 49.8797 757.314L54.5334 748.107C54.0442 747.456 53.3664 747.131 52.5 747.131C51.5357 747.131 50.7811 747.643 50.2361 748.669C49.691 749.68 49.4185 751.239 49.4185 753.345ZM52.5 759.558C53.4782 759.558 54.2399 759.053 54.7849 758.041C55.3299 757.016 55.6024 755.451 55.6024 753.345C55.6024 751.557 55.4277 750.172 55.0784 749.188L50.4247 758.478C50.9278 759.198 51.6196 759.558 52.5 759.558Z" fill="url(#paint39_linear_175_198)" fill-opacity="0.6"/>
<path d="M53.7577 783.143H56.8392V784.245H48.8525V783.143H52.4162V771.464L49.0202 773.48L48.4333 772.544L52.6258 769.967H53.7577V783.143Z" fill="url(#paint40_linear_175_198)" fill-opacity="0.6"/>
<path d="M52.5 793.511C53.9953 793.511 55.1273 794.141 55.8959 795.402C56.6785 796.649 57.0698 798.464 57.0698 800.847C57.0698 803.23 56.6785 805.052 55.8959 806.312C55.1273 807.573 53.9953 808.204 52.5 808.204C51.0187 808.204 49.8867 807.573 49.1041 806.312C48.3215 805.052 47.9302 803.23 47.9302 800.847C47.9302 798.478 48.3215 796.663 49.1041 795.402C49.8867 794.141 51.0187 793.511 52.5 793.511ZM49.4185 800.847C49.4185 802.537 49.5723 803.86 49.8797 804.816L54.5334 795.61C54.0442 794.958 53.3664 794.633 52.5 794.633C51.5357 794.633 50.7811 795.145 50.2361 796.171C49.691 797.182 49.4185 798.741 49.4185 800.847ZM52.5 807.061C53.4782 807.061 54.2399 806.555 54.7849 805.543C55.3299 804.518 55.6024 802.953 55.6024 800.847C55.6024 799.059 55.4277 797.674 55.0784 796.69L50.4247 805.98C50.9278 806.7 51.6196 807.061 52.5 807.061Z" fill="url(#paint41_linear_175_198)" fill-opacity="0.6"/>
<path d="M91.4302 579.751C92.9255 579.751 94.0575 580.381 94.8261 581.642C95.6087 582.889 96 584.704 96 587.087C96 589.47 95.6087 591.292 94.8261 592.553C94.0575 593.814 92.9255 594.444 91.4302 594.444C89.9489 594.444 88.8169 593.814 88.0343 592.553C87.2517 591.292 86.8604 589.47 86.8604 587.087C86.8604 584.718 87.2517 582.903 88.0343 581.642C88.8169 580.381 89.9489 579.751 91.4302 579.751ZM88.3487 587.087C88.3487 588.777 88.5024 590.101 88.8099 591.057L93.4636 581.85C92.9744 581.199 92.2966 580.873 91.4302 580.873C90.4659 580.873 89.7113 581.386 89.1663 582.411C88.6212 583.423 88.3487 584.981 88.3487 587.087ZM91.4302 593.301C92.4084 593.301 93.1701 592.795 93.7151 591.784C94.2601 590.759 94.5326 589.193 94.5326 587.087C94.5326 585.3 94.3579 583.914 94.0086 582.931L89.3549 592.22C89.858 592.941 90.5498 593.301 91.4302 593.301Z" fill="url(#paint42_linear_175_198)" fill-opacity="0.6"/>
<path d="M92.6879 616.886H95.7694V617.987H87.7827V616.886H91.3463V605.206L87.9504 607.222L87.3635 606.287L91.556 603.71H92.6879V616.886Z" fill="url(#paint43_linear_175_198)" fill-opacity="0.6"/>
<path d="M92.6879 640.637H95.7694V641.738H87.7827V640.637H91.3463V628.957L87.9504 630.973L87.3635 630.038L91.556 627.461H92.6879V640.637Z" fill="url(#paint44_linear_175_198)" fill-opacity="0.6"/>
<path d="M91.4302 651.004C92.9255 651.004 94.0575 651.635 94.8261 652.895C95.6087 654.142 96 655.957 96 658.34C96 660.723 95.6087 662.545 94.8261 663.806C94.0575 665.067 92.9255 665.697 91.4302 665.697C89.9489 665.697 88.8169 665.067 88.0343 663.806C87.2517 662.545 86.8604 660.723 86.8604 658.34C86.8604 655.971 87.2517 654.156 88.0343 652.895C88.8169 651.635 89.9489 651.004 91.4302 651.004ZM88.3487 658.34C88.3487 660.031 88.5024 661.354 88.8099 662.31L93.4636 653.103C92.9744 652.452 92.2966 652.126 91.4302 652.126C90.4659 652.126 89.7113 652.639 89.1663 653.664C88.6212 654.676 88.3487 656.234 88.3487 658.34ZM91.4302 664.554C92.4084 664.554 93.1701 664.049 93.7151 663.037C94.2601 662.012 94.5326 660.446 94.5326 658.34C94.5326 656.553 94.3579 655.168 94.0086 654.184L89.3549 663.474C89.858 664.194 90.5498 664.554 91.4302 664.554Z" fill="url(#paint45_linear_175_198)" fill-opacity="0.6"/>
<path d="M91.4302 674.755C92.9255 674.755 94.0575 675.386 94.8261 676.646C95.6087 677.893 96 679.708 96 682.091C96 684.474 95.6087 686.296 94.8261 687.557C94.0575 688.818 92.9255 689.448 91.4302 689.448C89.9489 689.448 88.8169 688.818 88.0343 687.557C87.2517 686.296 86.8604 684.474 86.8604 682.091C86.8604 679.722 87.2517 677.907 88.0343 676.646C88.8169 675.386 89.9489 674.755 91.4302 674.755ZM88.3487 682.091C88.3487 683.782 88.5024 685.105 88.8099 686.061L93.4636 676.854C92.9744 676.203 92.2966 675.878 91.4302 675.878C90.4659 675.878 89.7113 676.39 89.1663 677.415C88.6212 678.427 88.3487 679.985 88.3487 682.091ZM91.4302 688.305C92.4084 688.305 93.1701 687.8 93.7151 686.788C94.2601 685.763 94.5326 684.197 94.5326 682.091C94.5326 680.304 94.3579 678.919 94.0086 677.935L89.3549 687.225C89.858 687.945 90.5498 688.305 91.4302 688.305Z" fill="url(#paint46_linear_175_198)" fill-opacity="0.6"/>
<g opacity="0.6">
<path d="M919.93 256C921.356 256 922.436 256.605 923.17 257.815C923.916 259.011 924.29 260.753 924.29 263.04C924.29 265.327 923.916 267.075 923.17 268.285C922.436 269.495 921.356 270.1 919.93 270.1C918.517 270.1 917.437 269.495 916.69 268.285C915.943 267.075 915.57 265.327 915.57 263.04C915.57 260.767 915.943 259.025 916.69 257.815C917.437 256.605 918.517 256 919.93 256ZM916.99 263.04C916.99 264.662 917.137 265.932 917.43 266.849L921.87 258.014C921.403 257.389 920.756 257.077 919.93 257.077C919.01 257.077 918.29 257.569 917.77 258.553C917.25 259.523 916.99 261.019 916.99 263.04ZM919.93 269.003C920.863 269.003 921.59 268.518 922.11 267.547C922.63 266.564 922.89 265.061 922.89 263.04C922.89 261.325 922.723 259.995 922.39 259.051L917.95 267.966C918.43 268.658 919.09 269.003 919.93 269.003Z" fill="url(#paint47_linear_175_198)"/>
<path d="M921.13 291.637H924.07V292.694H916.45V291.637H919.85V280.428L916.61 282.363L916.05 281.465L920.05 278.992H921.13V291.637Z" fill="url(#paint48_linear_175_198)"/>
<path d="M919.93 301.586C921.356 301.586 922.436 302.191 923.17 303.4C923.916 304.597 924.29 306.339 924.29 308.626C924.29 310.913 923.916 312.661 923.17 313.871C922.436 315.081 921.356 315.686 919.93 315.686C918.517 315.686 917.437 315.081 916.69 313.871C915.943 312.661 915.57 310.913 915.57 308.626C915.57 306.352 915.943 304.61 916.69 303.4C917.437 302.191 918.517 301.586 919.93 301.586ZM916.99 308.626C916.99 310.248 917.137 311.518 917.43 312.435L921.87 303.6C921.403 302.975 920.756 302.663 919.93 302.663C919.01 302.663 918.29 303.155 917.77 304.138C917.25 305.109 916.99 306.605 916.99 308.626ZM919.93 314.589C920.863 314.589 921.59 314.104 922.11 313.133C922.63 312.149 922.89 310.647 922.89 308.626C922.89 306.911 922.723 305.581 922.39 304.637L917.95 313.552C918.43 314.243 919.09 314.589 919.93 314.589Z" fill="url(#paint49_linear_175_198)"/>
<path d="M921.13 337.222H924.07V338.279H916.45V337.222H919.85V326.014L916.61 327.948L916.05 327.051L920.05 324.578H921.13V337.222Z" fill="url(#paint50_linear_175_198)"/>
<path d="M921.13 360.015H924.07V361.072H916.45V360.015H919.85V348.807L916.61 350.741L916.05 349.844L920.05 347.371H921.13V360.015Z" fill="url(#paint51_linear_175_198)"/>
<path d="M919.93 369.964C921.356 369.964 922.436 370.569 923.17 371.779C923.916 372.976 924.29 374.717 924.29 377.004C924.29 379.291 923.916 381.039 923.17 382.249C922.436 383.459 921.356 384.064 919.93 384.064C918.517 384.064 917.437 383.459 916.69 382.249C915.943 381.039 915.57 379.291 915.57 377.004C915.57 374.731 915.943 372.989 916.69 371.779C917.437 370.569 918.517 369.964 919.93 369.964ZM916.99 377.004C916.99 378.626 917.137 379.896 917.43 380.813L921.87 371.978C921.403 371.353 920.756 371.041 919.93 371.041C919.01 371.041 918.29 371.533 917.77 372.517C917.25 373.487 916.99 374.983 916.99 377.004ZM919.93 382.967C920.863 382.967 921.59 382.482 922.11 381.511C922.63 380.528 922.89 379.025 922.89 377.004C922.89 375.289 922.723 373.959 922.39 373.015L917.95 381.93C918.43 382.622 919.09 382.967 919.93 382.967Z" fill="url(#paint52_linear_175_198)"/>
<path d="M921.13 405.601H924.07V406.658H916.45V405.601H919.85V394.392L916.61 396.327L916.05 395.429L920.05 392.956H921.13V405.601Z" fill="url(#paint53_linear_175_198)"/>
<path d="M919.93 415.55C921.356 415.55 922.436 416.155 923.17 417.365C923.916 418.561 924.29 420.303 924.29 422.59C924.29 424.877 923.916 426.625 923.17 427.835C922.436 429.045 921.356 429.65 919.93 429.65C918.517 429.65 917.437 429.045 916.69 427.835C915.943 426.625 915.57 424.877 915.57 422.59C915.57 420.316 915.943 418.574 916.69 417.365C917.437 416.155 918.517 415.55 919.93 415.55ZM916.99 422.59C916.99 424.212 917.137 425.482 917.43 426.399L921.87 417.564C921.403 416.939 920.756 416.627 919.93 416.627C919.01 416.627 918.29 417.119 917.77 418.102C917.25 419.073 916.99 420.569 916.99 422.59ZM919.93 428.553C920.863 428.553 921.59 428.068 922.11 427.097C922.63 426.113 922.89 424.611 922.89 422.59C922.89 420.875 922.723 419.545 922.39 418.601L917.95 427.516C918.43 428.207 919.09 428.553 919.93 428.553Z" fill="url(#paint54_linear_175_198)"/>
<path d="M919.93 438.342C921.356 438.342 922.436 438.947 923.17 440.157C923.916 441.354 924.29 443.096 924.29 445.383C924.29 447.669 923.916 449.418 923.17 450.628C922.436 451.838 921.356 452.443 919.93 452.443C918.517 452.443 917.437 451.838 916.69 450.628C915.943 449.418 915.57 447.669 915.57 445.383C915.57 443.109 915.943 441.367 916.69 440.157C917.437 438.947 918.517 438.342 919.93 438.342ZM916.99 445.383C916.99 447.005 917.137 448.274 917.43 449.192L921.87 440.357C921.403 439.732 920.756 439.419 919.93 439.419C919.01 439.419 918.29 439.911 917.77 440.895C917.25 441.866 916.99 443.362 916.99 445.383ZM919.93 451.346C920.863 451.346 921.59 450.86 922.11 449.89C922.63 448.906 922.89 447.404 922.89 445.383C922.89 443.667 922.723 442.338 922.39 441.394L917.95 450.309C918.43 451 919.09 451.346 919.93 451.346Z" fill="url(#paint55_linear_175_198)"/>
<path d="M921.13 473.979H924.07V475.036H916.45V473.979H919.85V462.771L916.61 464.705L916.05 463.808L920.05 461.335H921.13V473.979Z" fill="url(#paint56_linear_175_198)"/>
<path d="M919.93 483.928C921.356 483.928 922.436 484.533 923.17 485.743C923.916 486.94 924.29 488.681 924.29 490.968C924.29 493.255 923.916 495.003 923.17 496.213C922.436 497.423 921.356 498.028 919.93 498.028C918.517 498.028 917.437 497.423 916.69 496.213C915.943 495.003 915.57 493.255 915.57 490.968C915.57 488.695 915.943 486.953 916.69 485.743C917.437 484.533 918.517 483.928 919.93 483.928ZM916.99 490.968C916.99 492.59 917.137 493.86 917.43 494.777L921.87 485.942C921.403 485.317 920.756 485.005 919.93 485.005C919.01 485.005 918.29 485.497 917.77 486.481C917.25 487.451 916.99 488.947 916.99 490.968ZM919.93 496.931C920.863 496.931 921.59 496.446 922.11 495.475C922.63 494.492 922.89 492.989 922.89 490.968C922.89 489.253 922.723 487.923 922.39 486.979L917.95 495.894C918.43 496.586 919.09 496.931 919.93 496.931Z" fill="url(#paint57_linear_175_198)"/>
<path d="M921.13 519.565H924.07V520.622H916.45V519.565H919.85V508.356L916.61 510.291L916.05 509.393L920.05 506.92H921.13V519.565Z" fill="url(#paint58_linear_175_198)"/>
<path d="M921.13 542.357H924.07V543.414H916.45V542.357H919.85V531.149L916.61 533.084L916.05 532.186L920.05 529.713H921.13V542.357Z" fill="url(#paint59_linear_175_198)"/>
<path d="M957.07 301.586C958.497 301.586 959.577 302.191 960.31 303.4C961.057 304.597 961.43 306.339 961.43 308.626C961.43 310.913 961.057 312.661 960.31 313.871C959.577 315.081 958.497 315.686 957.07 315.686C955.657 315.686 954.577 315.081 953.83 313.871C953.084 312.661 952.71 310.913 952.71 308.626C952.71 306.352 953.084 304.61 953.83 303.4C954.577 302.191 955.657 301.586 957.07 301.586ZM954.13 308.626C954.13 310.248 954.277 311.518 954.57 312.435L959.01 303.6C958.543 302.975 957.897 302.663 957.07 302.663C956.15 302.663 955.43 303.155 954.91 304.138C954.39 305.109 954.13 306.605 954.13 308.626ZM957.07 314.589C958.003 314.589 958.73 314.104 959.25 313.133C959.77 312.149 960.03 310.647 960.03 308.626C960.03 306.911 959.863 305.581 959.53 304.637L955.09 313.552C955.57 314.243 956.23 314.589 957.07 314.589Z" fill="url(#paint60_linear_175_198)"/>
<path d="M958.27 337.222H961.21V338.279H953.59V337.222H956.99V326.014L953.75 327.948L953.19 327.051L957.19 324.578H958.27V337.222Z" fill="url(#paint61_linear_175_198)"/>
<path d="M957.07 347.171C958.497 347.171 959.577 347.776 960.31 348.986C961.057 350.183 961.43 351.924 961.43 354.211C961.43 356.498 961.057 358.247 960.31 359.457C959.577 360.666 958.497 361.271 957.07 361.271C955.657 361.271 954.577 360.666 953.83 359.457C953.084 358.247 952.71 356.498 952.71 354.211C952.71 351.938 953.084 350.196 953.83 348.986C954.577 347.776 955.657 347.171 957.07 347.171ZM954.13 354.211C954.13 355.833 954.277 357.103 954.57 358.021L959.01 349.186C958.543 348.561 957.897 348.248 957.07 348.248C956.15 348.248 955.43 348.74 954.91 349.724C954.39 350.695 954.13 352.19 954.13 354.211ZM957.07 360.174C958.003 360.174 958.73 359.689 959.25 358.719C959.77 357.735 960.03 356.232 960.03 354.211C960.03 352.496 959.863 351.167 959.53 350.223L955.09 359.137C955.57 359.829 956.23 360.174 957.07 360.174Z" fill="url(#paint62_linear_175_198)"/>
<path d="M957.07 369.964C958.497 369.964 959.577 370.569 960.31 371.779C961.057 372.976 961.43 374.717 961.43 377.004C961.43 379.291 961.057 381.039 960.31 382.249C959.577 383.459 958.497 384.064 957.07 384.064C955.657 384.064 954.577 383.459 953.83 382.249C953.084 381.039 952.71 379.291 952.71 377.004C952.71 374.731 953.084 372.989 953.83 371.779C954.577 370.569 955.657 369.964 957.07 369.964ZM954.13 377.004C954.13 378.626 954.277 379.896 954.57 380.813L959.01 371.978C958.543 371.353 957.897 371.041 957.07 371.041C956.15 371.041 955.43 371.533 954.91 372.517C954.39 373.487 954.13 374.983 954.13 377.004ZM957.07 382.967C958.003 382.967 958.73 382.482 959.25 381.511C959.77 380.528 960.03 379.025 960.03 377.004C960.03 375.289 959.863 373.959 959.53 373.015L955.09 381.93C955.57 382.622 956.23 382.967 957.07 382.967Z" fill="url(#paint63_linear_175_198)"/>
<path d="M958.27 405.601H961.21V406.658H953.59V405.601H956.99V394.392L953.75 396.327L953.19 395.429L957.19 392.956H958.27V405.601Z" fill="url(#paint64_linear_175_198)"/>
<path d="M957.07 415.55C958.497 415.55 959.577 416.155 960.31 417.365C961.057 418.561 961.43 420.303 961.43 422.59C961.43 424.877 961.057 426.625 960.31 427.835C959.577 429.045 958.497 429.65 957.07 429.65C955.657 429.65 954.577 429.045 953.83 427.835C953.084 426.625 952.71 424.877 952.71 422.59C952.71 420.316 953.084 418.574 953.83 417.365C954.577 416.155 955.657 415.55 957.07 415.55ZM954.13 422.59C954.13 424.212 954.277 425.482 954.57 426.399L959.01 417.564C958.543 416.939 957.897 416.627 957.07 416.627C956.15 416.627 955.43 417.119 954.91 418.102C954.39 419.073 954.13 420.569 954.13 422.59ZM957.07 428.553C958.003 428.553 958.73 428.068 959.25 427.097C959.77 426.113 960.03 424.611 960.03 422.59C960.03 420.875 959.863 419.545 959.53 418.601L955.09 427.516C955.57 428.207 956.23 428.553 957.07 428.553Z" fill="url(#paint65_linear_175_198)"/>
<path d="M958.27 451.186H961.21V452.243H953.59V451.186H956.99V439.978L953.75 441.912L953.19 441.015L957.19 438.542H958.27V451.186Z" fill="url(#paint66_linear_175_198)"/>
<path d="M957.07 461.135C958.497 461.135 959.577 461.74 960.31 462.95C961.057 464.147 961.43 465.888 961.43 468.175C961.43 470.462 961.057 472.211 960.31 473.421C959.577 474.63 958.497 475.235 957.07 475.235C955.657 475.235 954.577 474.63 953.83 473.421C953.084 472.211 952.71 470.462 952.71 468.175C952.71 465.902 953.084 464.16 953.83 462.95C954.577 461.74 955.657 461.135 957.07 461.135ZM954.13 468.175C954.13 469.797 954.277 471.067 954.57 471.985L959.01 463.15C958.543 462.525 957.897 462.212 957.07 462.212C956.15 462.212 955.43 462.704 954.91 463.688C954.39 464.659 954.13 466.154 954.13 468.175ZM957.07 474.139C958.003 474.139 958.73 473.653 959.25 472.683C959.77 471.699 960.03 470.196 960.03 468.175C960.03 466.46 959.863 465.131 959.53 464.187L955.09 473.101C955.57 473.793 956.23 474.139 957.07 474.139Z" fill="url(#paint67_linear_175_198)"/>
<path d="M957.07 483.928C958.497 483.928 959.577 484.533 960.31 485.743C961.057 486.94 961.43 488.681 961.43 490.968C961.43 493.255 961.057 495.003 960.31 496.213C959.577 497.423 958.497 498.028 957.07 498.028C955.657 498.028 954.577 497.423 953.83 496.213C953.084 495.003 952.71 493.255 952.71 490.968C952.71 488.695 953.084 486.953 953.83 485.743C954.577 484.533 955.657 483.928 957.07 483.928ZM954.13 490.968C954.13 492.59 954.277 493.86 954.57 494.777L959.01 485.942C958.543 485.317 957.897 485.005 957.07 485.005C956.15 485.005 955.43 485.497 954.91 486.481C954.39 487.451 954.13 488.947 954.13 490.968ZM957.07 496.931C958.003 496.931 958.73 496.446 959.25 495.475C959.77 494.492 960.03 492.989 960.03 490.968C960.03 489.253 959.863 487.923 959.53 486.979L955.09 495.894C955.57 496.586 956.23 496.931 957.07 496.931Z" fill="url(#paint68_linear_175_198)"/>
<path d="M958.27 519.565H961.21V520.622H953.59V519.565H956.99V508.356L953.75 510.291L953.19 509.393L957.19 506.92H958.27V519.565Z" fill="url(#paint69_linear_175_198)"/>
<path d="M957.07 529.514C958.497 529.514 959.577 530.119 960.31 531.329C961.057 532.525 961.43 534.267 961.43 536.554C961.43 538.841 961.057 540.589 960.31 541.799C959.577 543.009 958.497 543.614 957.07 543.614C955.657 543.614 954.577 543.009 953.83 541.799C953.084 540.589 952.71 538.841 952.71 536.554C952.71 534.28 953.084 532.538 953.83 531.329C954.577 530.119 955.657 529.514 957.07 529.514ZM954.13 536.554C954.13 538.176 954.277 539.446 954.57 540.363L959.01 531.528C958.543 530.903 957.897 530.591 957.07 530.591C956.15 530.591 955.43 531.083 954.91 532.066C954.39 533.037 954.13 534.533 954.13 536.554ZM957.07 542.517C958.003 542.517 958.73 542.032 959.25 541.061C959.77 540.077 960.03 538.575 960.03 536.554C960.03 534.839 959.863 533.509 959.53 532.565L955.09 541.48C955.57 542.171 956.23 542.517 957.07 542.517Z" fill="url(#paint70_linear_175_198)"/>
<path d="M958.27 565.15H961.21V566.207H953.59V565.15H956.99V553.942L953.75 555.876L953.19 554.979L957.19 552.506H958.27V565.15Z" fill="url(#paint71_linear_175_198)"/>
<path d="M958.27 587.943H961.21V589H953.59V587.943H956.99V576.735L953.75 578.669L953.19 577.772L957.19 575.299H958.27V587.943Z" fill="url(#paint72_linear_175_198)"/>
<path d="M901.36 324.378C902.786 324.378 903.866 324.983 904.599 326.193C905.346 327.39 905.719 329.132 905.719 331.419C905.719 333.705 905.346 335.454 904.599 336.664C903.866 337.874 902.786 338.479 901.36 338.479C899.946 338.479 898.867 337.874 898.12 336.664C897.373 335.454 897 333.705 897 331.419C897 329.145 897.373 327.403 898.12 326.193C898.867 324.983 899.946 324.378 901.36 324.378ZM898.42 331.419C898.42 333.041 898.567 334.31 898.86 335.228L903.3 326.393C902.833 325.768 902.186 325.455 901.36 325.455C900.44 325.455 899.72 325.947 899.2 326.931C898.68 327.902 898.42 329.398 898.42 331.419ZM901.36 337.382C902.293 337.382 903.02 336.896 903.54 335.926C904.06 334.942 904.319 333.439 904.319 331.419C904.319 329.703 904.153 328.374 903.82 327.43L899.38 336.345C899.86 337.036 900.52 337.382 901.36 337.382Z" fill="url(#paint73_linear_175_198)"/>
<path d="M901.36 347.171C902.786 347.171 903.866 347.776 904.599 348.986C905.346 350.183 905.719 351.924 905.719 354.211C905.719 356.498 905.346 358.247 904.599 359.457C903.866 360.666 902.786 361.271 901.36 361.271C899.946 361.271 898.867 360.666 898.12 359.457C897.373 358.247 897 356.498 897 354.211C897 351.938 897.373 350.196 898.12 348.986C898.867 347.776 899.946 347.171 901.36 347.171ZM898.42 354.211C898.42 355.833 898.567 357.103 898.86 358.021L903.3 349.186C902.833 348.561 902.186 348.248 901.36 348.248C900.44 348.248 899.72 348.74 899.2 349.724C898.68 350.695 898.42 352.19 898.42 354.211ZM901.36 360.174C902.293 360.174 903.02 359.689 903.54 358.719C904.06 357.735 904.319 356.232 904.319 354.211C904.319 352.496 904.153 351.167 903.82 350.223L899.38 359.137C899.86 359.829 900.52 360.174 901.36 360.174Z" fill="url(#paint74_linear_175_198)"/>
<path d="M902.56 382.808H905.499V383.865H897.88V382.808H901.28V371.599L898.04 373.534L897.48 372.636L901.48 370.163H902.56V382.808Z" fill="url(#paint75_linear_175_198)"/>
<path d="M901.36 392.757C902.786 392.757 903.866 393.362 904.599 394.572C905.346 395.768 905.719 397.51 905.719 399.797C905.719 402.084 905.346 403.832 904.599 405.042C903.866 406.252 902.786 406.857 901.36 406.857C899.946 406.857 898.867 406.252 898.12 405.042C897.373 403.832 897 402.084 897 399.797C897 397.523 897.373 395.782 898.12 394.572C898.867 393.362 899.946 392.757 901.36 392.757ZM898.42 399.797C898.42 401.419 898.567 402.689 898.86 403.606L903.3 394.771C902.833 394.146 902.186 393.834 901.36 393.834C900.44 393.834 899.72 394.326 899.2 395.31C898.68 396.28 898.42 397.776 898.42 399.797ZM901.36 405.76C902.293 405.76 903.02 405.275 903.54 404.304C904.06 403.32 904.319 401.818 904.319 399.797C904.319 398.082 904.153 396.752 903.82 395.808L899.38 404.723C899.86 405.414 900.52 405.76 901.36 405.76Z" fill="url(#paint76_linear_175_198)"/>
<path d="M902.56 428.393H905.499V429.45H897.88V428.393H901.28V417.185L898.04 419.12L897.48 418.222L901.48 415.749H902.56V428.393Z" fill="url(#paint77_linear_175_198)"/>
<path d="M902.56 451.186H905.499V452.243H897.88V451.186H901.28V439.978L898.04 441.912L897.48 441.015L901.48 438.542H902.56V451.186Z" fill="url(#paint78_linear_175_198)"/>
<path d="M939.7 291.637H942.64V292.694H935.02V291.637H938.42V280.428L935.18 282.363L934.62 281.465L938.62 278.992H939.7V291.637Z" fill="url(#paint79_linear_175_198)"/>
<path d="M938.5 301.586C939.927 301.586 941.006 302.191 941.74 303.4C942.486 304.597 942.86 306.339 942.86 308.626C942.86 310.913 942.486 312.661 941.74 313.871C941.006 315.081 939.927 315.686 938.5 315.686C937.087 315.686 936.007 315.081 935.26 313.871C934.514 312.661 934.14 310.913 934.14 308.626C934.14 306.352 934.514 304.61 935.26 303.4C936.007 302.191 937.087 301.586 938.5 301.586ZM935.56 308.626C935.56 310.248 935.707 311.518 936 312.435L940.44 303.6C939.973 302.975 939.327 302.663 938.5 302.663C937.58 302.663 936.86 303.155 936.34 304.138C935.82 305.109 935.56 306.605 935.56 308.626ZM938.5 314.589C939.433 314.589 940.16 314.104 940.68 313.133C941.2 312.149 941.46 310.647 941.46 308.626C941.46 306.911 941.293 305.581 940.96 304.637L936.52 313.552C937 314.243 937.66 314.589 938.5 314.589Z" fill="url(#paint80_linear_175_198)"/>
<path d="M939.7 337.222H942.64V338.279H935.02V337.222H938.42V326.014L935.18 327.948L934.62 327.051L938.62 324.578H939.7V337.222Z" fill="url(#paint81_linear_175_198)"/>
<path d="M939.7 360.015H942.64V361.072H935.02V360.015H938.42V348.807L935.18 350.741L934.62 349.844L938.62 347.371H939.7V360.015Z" fill="url(#paint82_linear_175_198)"/>
<path d="M938.5 369.964C939.927 369.964 941.006 370.569 941.74 371.779C942.486 372.976 942.86 374.717 942.86 377.004C942.86 379.291 942.486 381.039 941.74 382.249C941.006 383.459 939.927 384.064 938.5 384.064C937.087 384.064 936.007 383.459 935.26 382.249C934.514 381.039 934.14 379.291 934.14 377.004C934.14 374.731 934.514 372.989 935.26 371.779C936.007 370.569 937.087 369.964 938.5 369.964ZM935.56 377.004C935.56 378.626 935.707 379.896 936 380.813L940.44 371.978C939.973 371.353 939.327 371.041 938.5 371.041C937.58 371.041 936.86 371.533 936.34 372.517C935.82 373.487 935.56 374.983 935.56 377.004ZM938.5 382.967C939.433 382.967 940.16 382.482 940.68 381.511C941.2 380.528 941.46 379.025 941.46 377.004C941.46 375.289 941.293 373.959 940.96 373.015L936.52 381.93C937 382.622 937.66 382.967 938.5 382.967Z" fill="url(#paint83_linear_175_198)"/>
<path d="M939.7 405.601H942.64V406.658H935.02V405.601H938.42V394.392L935.18 396.327L934.62 395.429L938.62 392.956H939.7V405.601Z" fill="url(#paint84_linear_175_198)"/>
<path d="M939.7 428.393H942.64V429.45H935.02V428.393H938.42V417.185L935.18 419.12L934.62 418.222L938.62 415.749H939.7V428.393Z" fill="url(#paint85_linear_175_198)"/>
<path d="M938.5 438.342C939.927 438.342 941.006 438.947 941.74 440.157C942.486 441.354 942.86 443.096 942.86 445.383C942.86 447.669 942.486 449.418 941.74 450.628C941.006 451.838 939.927 452.443 938.5 452.443C937.087 452.443 936.007 451.838 935.26 450.628C934.514 449.418 934.14 447.669 934.14 445.383C934.14 443.109 934.514 441.367 935.26 440.157C936.007 438.947 937.087 438.342 938.5 438.342ZM935.56 445.383C935.56 447.005 935.707 448.274 936 449.192L940.44 440.357C939.973 439.732 939.327 439.419 938.5 439.419C937.58 439.419 936.86 439.911 936.34 440.895C935.82 441.866 935.56 443.362 935.56 445.383ZM938.5 451.346C939.433 451.346 940.16 450.86 940.68 449.89C941.2 448.906 941.46 447.404 941.46 445.383C941.46 443.667 941.293 442.338 940.96 441.394L936.52 450.309C937 451 937.66 451.346 938.5 451.346Z" fill="url(#paint86_linear_175_198)"/>
<path d="M939.7 473.979H942.64V475.036H935.02V473.979H938.42V462.771L935.18 464.705L934.62 463.808L938.62 461.335H939.7V473.979Z" fill="url(#paint87_linear_175_198)"/>
<path d="M938.5 483.928C939.927 483.928 941.006 484.533 941.74 485.743C942.486 486.94 942.86 488.681 942.86 490.968C942.86 493.255 942.486 495.003 941.74 496.213C941.006 497.423 939.927 498.028 938.5 498.028C937.087 498.028 936.007 497.423 935.26 496.213C934.514 495.003 934.14 493.255 934.14 490.968C934.14 488.695 934.514 486.953 935.26 485.743C936.007 484.533 937.087 483.928 938.5 483.928ZM935.56 490.968C935.56 492.59 935.707 493.86 936 494.777L940.44 485.942C939.973 485.317 939.327 485.005 938.5 485.005C937.58 485.005 936.86 485.497 936.34 486.481C935.82 487.451 935.56 488.947 935.56 490.968ZM938.5 496.931C939.433 496.931 940.16 496.446 940.68 495.475C941.2 494.492 941.46 492.989 941.46 490.968C941.46 489.253 941.293 487.923 940.96 486.979L936.52 495.894C937 496.586 937.66 496.931 938.5 496.931Z" fill="url(#paint88_linear_175_198)"/>
<path d="M975.64 278.793C977.067 278.793 978.147 279.398 978.88 280.608C979.627 281.804 980 283.546 980 285.833C980 288.12 979.627 289.868 978.88 291.078C978.147 292.288 977.067 292.893 975.64 292.893C974.227 292.893 973.147 292.288 972.401 291.078C971.654 289.868 971.281 288.12 971.281 285.833C971.281 283.559 971.654 281.818 972.401 280.608C973.147 279.398 974.227 278.793 975.64 278.793ZM972.701 285.833C972.701 287.455 972.847 288.725 973.14 289.642L977.58 280.807C977.114 280.182 976.467 279.87 975.64 279.87C974.72 279.87 974 280.362 973.48 281.346C972.96 282.316 972.701 283.812 972.701 285.833ZM975.64 291.796C976.574 291.796 977.3 291.311 977.82 290.34C978.34 289.356 978.6 287.854 978.6 285.833C978.6 284.118 978.433 282.788 978.1 281.844L973.66 290.759C974.14 291.45 974.8 291.796 975.64 291.796Z" fill="url(#paint89_linear_175_198)"/>
<path d="M976.84 314.429H979.78V315.486H972.161V314.429H975.56V303.221L972.321 305.156L971.761 304.258L975.76 301.785H976.84V314.429Z" fill="url(#paint90_linear_175_198)"/>
<path d="M976.84 337.222H979.78V338.279H972.161V337.222H975.56V326.014L972.321 327.948L971.761 327.051L975.76 324.578H976.84V337.222Z" fill="url(#paint91_linear_175_198)"/>
<path d="M975.64 347.171C977.067 347.171 978.147 347.776 978.88 348.986C979.627 350.183 980 351.924 980 354.211C980 356.498 979.627 358.247 978.88 359.457C978.147 360.666 977.067 361.271 975.64 361.271C974.227 361.271 973.147 360.666 972.401 359.457C971.654 358.247 971.281 356.498 971.281 354.211C971.281 351.938 971.654 350.196 972.401 348.986C973.147 347.776 974.227 347.171 975.64 347.171ZM972.701 354.211C972.701 355.833 972.847 357.103 973.14 358.021L977.58 349.186C977.114 348.561 976.467 348.248 975.64 348.248C974.72 348.248 974 348.74 973.48 349.724C972.96 350.695 972.701 352.19 972.701 354.211ZM975.64 360.174C976.574 360.174 977.3 359.689 977.82 358.719C978.34 357.735 978.6 356.232 978.6 354.211C978.6 352.496 978.433 351.167 978.1 350.223L973.66 359.137C974.14 359.829 974.8 360.174 975.64 360.174Z" fill="url(#paint92_linear_175_198)"/>
<path d="M975.64 369.964C977.067 369.964 978.147 370.569 978.88 371.779C979.627 372.976 980 374.717 980 377.004C980 379.291 979.627 381.039 978.88 382.249C978.147 383.459 977.067 384.064 975.64 384.064C974.227 384.064 973.147 383.459 972.401 382.249C971.654 381.039 971.281 379.291 971.281 377.004C971.281 374.731 971.654 372.989 972.401 371.779C973.147 370.569 974.227 369.964 975.64 369.964ZM972.701 377.004C972.701 378.626 972.847 379.896 973.14 380.813L977.58 371.978C977.114 371.353 976.467 371.041 975.64 371.041C974.72 371.041 974 371.533 973.48 372.517C972.96 373.487 972.701 374.983 972.701 377.004ZM975.64 382.967C976.574 382.967 977.3 382.482 977.82 381.511C978.34 380.528 978.6 379.025 978.6 377.004C978.6 375.289 978.433 373.959 978.1 373.015L973.66 381.93C974.14 382.622 974.8 382.967 975.64 382.967Z" fill="url(#paint93_linear_175_198)"/>
</g>
<defs>
<filter id="filter0_f_175_198" x="-558.19" y="-430.19" width="2141.38" height="1500.38" filterUnits="userSpaceOnUse" color-interpolation-filters="sRGB">
<feFlood flood-opacity="0" result="BackgroundImageFix"/>
<feBlend mode="normal" in="SourceGraphic" in2="BackgroundImageFix" result="shape"/>
<feGaussianBlur stdDeviation="200.095" result="effect1_foregroundBlur_175_198"/>
</filter>
<linearGradient id="paint0_linear_175_198" x1="52.5" y1="556" x2="52.5" y2="867.381" gradientUnits="userSpaceOnUse">
<stop stop-color="#F7DD43"/>
<stop offset="1" stop-color="#F7DD43" stop-opacity="0"/>
</linearGradient>
<linearGradient id="paint1_linear_175_198" x1="52.5" y1="556" x2="52.5" y2="867.381" gradientUnits="userSpaceOnUse">
<stop stop-color="#F7DD43"/>
<stop offset="1" stop-color="#F7DD43" stop-opacity="0"/>
</linearGradient>
<linearGradient id="paint2_linear_175_198" x1="52.5" y1="556" x2="52.5" y2="867.381" gradientUnits="userSpaceOnUse">
<stop stop-color="#F7DD43"/>
<stop offset="1" stop-color="#F7DD43" stop-opacity="0"/>
</linearGradient>
<linearGradient id="paint3_linear_175_198" x1="52.5" y1="556" x2="52.5" y2="867.381" gradientUnits="userSpaceOnUse">
<stop stop-color="#F7DD43"/>
<stop offset="1" stop-color="#F7DD43" stop-opacity="0"/>
</linearGradient>
<linearGradient id="paint4_linear_175_198" x1="52.5" y1="556" x2="52.5" y2="867.381" gradientUnits="userSpaceOnUse">
<stop stop-color="#F7DD43"/>
<stop offset="1" stop-color="#F7DD43" stop-opacity="0"/>
</linearGradient>
<linearGradient id="paint5_linear_175_198" x1="52.5" y1="556" x2="52.5" y2="867.381" gradientUnits="userSpaceOnUse">
<stop stop-color="#F7DD43"/>
<stop offset="1" stop-color="#F7DD43" stop-opacity="0"/>
</linearGradient>
<linearGradient id="paint6_linear_175_198" x1="52.5" y1="556" x2="52.5" y2="867.381" gradientUnits="userSpaceOnUse">
<stop stop-color="#F7DD43"/>
<stop offset="1" stop-color="#F7DD43" stop-opacity="0"/>
</linearGradient>
<linearGradient id="paint7_linear_175_198" x1="52.5" y1="556" x2="52.5" y2="867.381" gradientUnits="userSpaceOnUse">
<stop stop-color="#F7DD43"/>
<stop offset="1" stop-color="#F7DD43" stop-opacity="0"/>
</linearGradient>
<linearGradient id="paint8_linear_175_198" x1="52.5" y1="556" x2="52.5" y2="867.381" gradientUnits="userSpaceOnUse">
<stop stop-color="#F7DD43"/>
<stop offset="1" stop-color="#F7DD43" stop-opacity="0"/>
</linearGradient>
<linearGradient id="paint9_linear_175_198" x1="52.5" y1="556" x2="52.5" y2="867.381" gradientUnits="userSpaceOnUse">
<stop stop-color="#F7DD43"/>
<stop offset="1" stop-color="#F7DD43" stop-opacity="0"/>
</linearGradient>
<linearGradient id="paint10_linear_175_198" x1="52.5" y1="556" x2="52.5" y2="867.381" gradientUnits="userSpaceOnUse">
<stop stop-color="#F7DD43"/>
<stop offset="1" stop-color="#F7DD43" stop-opacity="0"/>
</linearGradient>
<linearGradient id="paint11_linear_175_198" x1="52.5" y1="556" x2="52.5" y2="867.381" gradientUnits="userSpaceOnUse">
<stop stop-color="#F7DD43"/>
<stop offset="1" stop-color="#F7DD43" stop-opacity="0"/>
</linearGradient>
<linearGradient id="paint12_linear_175_198" x1="52.5" y1="556" x2="52.5" y2="867.381" gradientUnits="userSpaceOnUse">
<stop stop-color="#F7DD43"/>
<stop offset="1" stop-color="#F7DD43" stop-opacity="0"/>
</linearGradient>
<linearGradient id="paint13_linear_175_198" x1="52.5" y1="556" x2="52.5" y2="867.381" gradientUnits="userSpaceOnUse">
<stop stop-color="#F7DD43"/>
<stop offset="1" stop-color="#F7DD43" stop-opacity="0"/>
</linearGradient>
<linearGradient id="paint14_linear_175_198" x1="52.5" y1="556" x2="52.5" y2="867.381" gradientUnits="userSpaceOnUse">
<stop stop-color="#F7DD43"/>
<stop offset="1" stop-color="#F7DD43" stop-opacity="0"/>
</linearGradient>
<linearGradient id="paint15_linear_175_198" x1="52.5" y1="556" x2="52.5" y2="867.381" gradientUnits="userSpaceOnUse">
<stop stop-color="#F7DD43"/>
<stop offset="1" stop-color="#F7DD43" stop-opacity="0"/>
</linearGradient>
<linearGradient id="paint16_linear_175_198" x1="52.5" y1="556" x2="52.5" y2="867.381" gradientUnits="userSpaceOnUse">
<stop stop-color="#F7DD43"/>
<stop offset="1" stop-color="#F7DD43" stop-opacity="0"/>
</linearGradient>
<linearGradient id="paint17_linear_175_198" x1="52.5" y1="556" x2="52.5" y2="867.381" gradientUnits="userSpaceOnUse">
<stop stop-color="#F7DD43"/>
<stop offset="1" stop-color="#F7DD43" stop-opacity="0"/>
</linearGradient>
<linearGradient id="paint18_linear_175_198" x1="52.5" y1="556" x2="52.5" y2="867.381" gradientUnits="userSpaceOnUse">
<stop stop-color="#F7DD43"/>
<stop offset="1" stop-color="#F7DD43" stop-opacity="0"/>
</linearGradient>
<linearGradient id="paint19_linear_175_198" x1="52.5" y1="556" x2="52.5" y2="867.381" gradientUnits="userSpaceOnUse">
<stop stop-color="#F7DD43"/>
<stop offset="1" stop-color="#F7DD43" stop-opacity="0"/>
</linearGradient>
<linearGradient id="paint20_linear_175_198" x1="52.5" y1="556" x2="52.5" y2="867.381" gradientUnits="userSpaceOnUse">
<stop stop-color="#F7DD43"/>
<stop offset="1" stop-color="#F7DD43" stop-opacity="0"/>
</linearGradient>
<linearGradient id="paint21_linear_175_198" x1="52.5" y1="556" x2="52.5" y2="867.381" gradientUnits="userSpaceOnUse">
<stop stop-color="#F7DD43"/>
<stop offset="1" stop-color="#F7DD43" stop-opacity="0"/>
</linearGradient>
<linearGradient id="paint22_linear_175_198" x1="52.5" y1="556" x2="52.5" y2="867.381" gradientUnits="userSpaceOnUse">
<stop stop-color="#F7DD43"/>
<stop offset="1" stop-color="#F7DD43" stop-opacity="0"/>
</linearGradient>
<linearGradient id="paint23_linear_175_198" x1="52.5" y1="556" x2="52.5" y2="867.381" gradientUnits="userSpaceOnUse">
<stop stop-color="#F7DD43"/>
<stop offset="1" stop-color="#F7DD43" stop-opacity="0"/>
</linearGradient>
<linearGradient id="paint24_linear_175_198" x1="52.5" y1="556" x2="52.5" y2="867.381" gradientUnits="userSpaceOnUse">
<stop stop-color="#F7DD43"/>
<stop offset="1" stop-color="#F7DD43" stop-opacity="0"/>
</linearGradient>
<linearGradient id="paint25_linear_175_198" x1="52.5" y1="556" x2="52.5" y2="867.381" gradientUnits="userSpaceOnUse">
<stop stop-color="#F7DD43"/>
<stop offset="1" stop-color="#F7DD43" stop-opacity="0"/>
</linearGradient>
<linearGradient id="paint26_linear_175_198" x1="52.5" y1="556" x2="52.5" y2="867.381" gradientUnits="userSpaceOnUse">
<stop stop-color="#F7DD43"/>
<stop offset="1" stop-color="#F7DD43" stop-opacity="0"/>
</linearGradient>
<linearGradient id="paint27_linear_175_198" x1="52.5" y1="556" x2="52.5" y2="867.381" gradientUnits="userSpaceOnUse">
<stop stop-color="#F7DD43"/>
<stop offset="1" stop-color="#F7DD43" stop-opacity="0"/>
</linearGradient>
<linearGradient id="paint28_linear_175_198" x1="52.5" y1="556" x2="52.5" y2="867.381" gradientUnits="userSpaceOnUse">
<stop stop-color="#F7DD43"/>
<stop offset="1" stop-color="#F7DD43" stop-opacity="0"/>
</linearGradient>
<linearGradient id="paint29_linear_175_198" x1="52.5" y1="556" x2="52.5" y2="867.381" gradientUnits="userSpaceOnUse">
<stop stop-color="#F7DD43"/>
<stop offset="1" stop-color="#F7DD43" stop-opacity="0"/>
</linearGradient>
<linearGradient id="paint30_linear_175_198" x1="52.5" y1="556" x2="52.5" y2="867.381" gradientUnits="userSpaceOnUse">
<stop stop-color="#F7DD43"/>
<stop offset="1" stop-color="#F7DD43" stop-opacity="0"/>
</linearGradient>
<linearGradient id="paint31_linear_175_198" x1="52.5" y1="556" x2="52.5" y2="867.381" gradientUnits="userSpaceOnUse">
<stop stop-color="#F7DD43"/>
<stop offset="1" stop-color="#F7DD43" stop-opacity="0"/>
</linearGradient>
<linearGradient id="paint32_linear_175_198" x1="52.5" y1="556" x2="52.5" y2="867.381" gradientUnits="userSpaceOnUse">
<stop stop-color="#F7DD43"/>
<stop offset="1" stop-color="#F7DD43" stop-opacity="0"/>
</linearGradient>
<linearGradient id="paint33_linear_175_198" x1="52.5" y1="556" x2="52.5" y2="867.381" gradientUnits="userSpaceOnUse">
<stop stop-color="#F7DD43"/>
<stop offset="1" stop-color="#F7DD43" stop-opacity="0"/>
</linearGradient>
<linearGradient id="paint34_linear_175_198" x1="52.5" y1="556" x2="52.5" y2="867.381" gradientUnits="userSpaceOnUse">
<stop stop-color="#F7DD43"/>
<stop offset="1" stop-color="#F7DD43" stop-opacity="0"/>
</linearGradient>
<linearGradient id="paint35_linear_175_198" x1="52.5" y1="556" x2="52.5" y2="867.381" gradientUnits="userSpaceOnUse">
<stop stop-color="#F7DD43"/>
<stop offset="1" stop-color="#F7DD43" stop-opacity="0"/>
</linearGradient>
<linearGradient id="paint36_linear_175_198" x1="52.5" y1="556" x2="52.5" y2="867.381" gradientUnits="userSpaceOnUse">
<stop stop-color="#F7DD43"/>
<stop offset="1" stop-color="#F7DD43" stop-opacity="0"/>
</linearGradient>
<linearGradient id="paint37_linear_175_198" x1="52.5" y1="556" x2="52.5" y2="867.381" gradientUnits="userSpaceOnUse">
<stop stop-color="#F7DD43"/>
<stop offset="1" stop-color="#F7DD43" stop-opacity="0"/>
</linearGradient>
<linearGradient id="paint38_linear_175_198" x1="52.5" y1="556" x2="52.5" y2="867.381" gradientUnits="userSpaceOnUse">
<stop stop-color="#F7DD43"/>
<stop offset="1" stop-color="#F7DD43" stop-opacity="0"/>
</linearGradient>
<linearGradient id="paint39_linear_175_198" x1="52.5" y1="556" x2="52.5" y2="867.381" gradientUnits="userSpaceOnUse">
<stop stop-color="#F7DD43"/>
<stop offset="1" stop-color="#F7DD43" stop-opacity="0"/>
</linearGradient>
<linearGradient id="paint40_linear_175_198" x1="52.5" y1="556" x2="52.5" y2="867.381" gradientUnits="userSpaceOnUse">
<stop stop-color="#F7DD43"/>
<stop offset="1" stop-color="#F7DD43" stop-opacity="0"/>
</linearGradient>
<linearGradient id="paint41_linear_175_198" x1="52.5" y1="556" x2="52.5" y2="867.381" gradientUnits="userSpaceOnUse">
<stop stop-color="#F7DD43"/>
<stop offset="1" stop-color="#F7DD43" stop-opacity="0"/>
</linearGradient>
<linearGradient id="paint42_linear_175_198" x1="52.5" y1="556" x2="52.5" y2="867.381" gradientUnits="userSpaceOnUse">
<stop stop-color="#F7DD43"/>
<stop offset="1" stop-color="#F7DD43" stop-opacity="0"/>
</linearGradient>
<linearGradient id="paint43_linear_175_198" x1="52.5" y1="556" x2="52.5" y2="867.381" gradientUnits="userSpaceOnUse">
<stop stop-color="#F7DD43"/>
<stop offset="1" stop-color="#F7DD43" stop-opacity="0"/>
</linearGradient>
<linearGradient id="paint44_linear_175_198" x1="52.5" y1="556" x2="52.5" y2="867.381" gradientUnits="userSpaceOnUse">
<stop stop-color="#F7DD43"/>
<stop offset="1" stop-color="#F7DD43" stop-opacity="0"/>
</linearGradient>
<linearGradient id="paint45_linear_175_198" x1="52.5" y1="556" x2="52.5" y2="867.381" gradientUnits="userSpaceOnUse">
<stop stop-color="#F7DD43"/>
<stop offset="1" stop-color="#F7DD43" stop-opacity="0"/>
</linearGradient>
<linearGradient id="paint46_linear_175_198" x1="52.5" y1="556" x2="52.5" y2="867.381" gradientUnits="userSpaceOnUse">
<stop stop-color="#F7DD43"/>
<stop offset="1" stop-color="#F7DD43" stop-opacity="0"/>
</linearGradient>
<linearGradient id="paint47_linear_175_198" x1="938.5" y1="256" x2="938.5" y2="554.818" gradientUnits="userSpaceOnUse">
<stop stop-color="#F7DD43"/>
<stop offset="1" stop-color="#F7DD43" stop-opacity="0"/>
</linearGradient>
<linearGradient id="paint48_linear_175_198" x1="938.5" y1="256" x2="938.5" y2="554.818" gradientUnits="userSpaceOnUse">
<stop stop-color="#F7DD43"/>
<stop offset="1" stop-color="#F7DD43" stop-opacity="0"/>
</linearGradient>
<linearGradient id="paint49_linear_175_198" x1="938.5" y1="256" x2="938.5" y2="554.818" gradientUnits="userSpaceOnUse">
<stop stop-color="#F7DD43"/>
<stop offset="1" stop-color="#F7DD43" stop-opacity="0"/>
</linearGradient>
<linearGradient id="paint50_linear_175_198" x1="938.5" y1="256" x2="938.5" y2="554.818" gradientUnits="userSpaceOnUse">
<stop stop-color="#F7DD43"/>
<stop offset="1" stop-color="#F7DD43" stop-opacity="0"/>
</linearGradient>
<linearGradient id="paint51_linear_175_198" x1="938.5" y1="256" x2="938.5" y2="554.818" gradientUnits="userSpaceOnUse">
<stop stop-color="#F7DD43"/>
<stop offset="1" stop-color="#F7DD43" stop-opacity="0"/>
</linearGradient>
<linearGradient id="paint52_linear_175_198" x1="938.5" y1="256" x2="938.5" y2="554.818" gradientUnits="userSpaceOnUse">
<stop stop-color="#F7DD43"/>
<stop offset="1" stop-color="#F7DD43" stop-opacity="0"/>
</linearGradient>
<linearGradient id="paint53_linear_175_198" x1="938.5" y1="256" x2="938.5" y2="554.818" gradientUnits="userSpaceOnUse">
<stop stop-color="#F7DD43"/>
<stop offset="1" stop-color="#F7DD43" stop-opacity="0"/>
</linearGradient>
<linearGradient id="paint54_linear_175_198" x1="938.5" y1="256" x2="938.5" y2="554.818" gradientUnits="userSpaceOnUse">
<stop stop-color="#F7DD43"/>
<stop offset="1" stop-color="#F7DD43" stop-opacity="0"/>
</linearGradient>
<linearGradient id="paint55_linear_175_198" x1="938.5" y1="256" x2="938.5" y2="554.818" gradientUnits="userSpaceOnUse">
<stop stop-color="#F7DD43"/>
<stop offset="1" stop-color="#F7DD43" stop-opacity="0"/>
</linearGradient>
<linearGradient id="paint56_linear_175_198" x1="938.5" y1="256" x2="938.5" y2="554.818" gradientUnits="userSpaceOnUse">
<stop stop-color="#F7DD43"/>
<stop offset="1" stop-color="#F7DD43" stop-opacity="0"/>
</linearGradient>
<linearGradient id="paint57_linear_175_198" x1="938.5" y1="256" x2="938.5" y2="554.818" gradientUnits="userSpaceOnUse">
<stop stop-color="#F7DD43"/>
<stop offset="1" stop-color="#F7DD43" stop-opacity="0"/>
</linearGradient>
<linearGradient id="paint58_linear_175_198" x1="938.5" y1="256" x2="938.5" y2="554.818" gradientUnits="userSpaceOnUse">
<stop stop-color="#F7DD43"/>
<stop offset="1" stop-color="#F7DD43" stop-opacity="0"/>
</linearGradient>
<linearGradient id="paint59_linear_175_198" x1="938.5" y1="256" x2="938.5" y2="554.818" gradientUnits="userSpaceOnUse">
<stop stop-color="#F7DD43"/>
<stop offset="1" stop-color="#F7DD43" stop-opacity="0"/>
</linearGradient>
<linearGradient id="paint60_linear_175_198" x1="938.5" y1="256" x2="938.5" y2="554.818" gradientUnits="userSpaceOnUse">
<stop stop-color="#F7DD43"/>
<stop offset="1" stop-color="#F7DD43" stop-opacity="0"/>
</linearGradient>
<linearGradient id="paint61_linear_175_198" x1="938.5" y1="256" x2="938.5" y2="554.818" gradientUnits="userSpaceOnUse">
<stop stop-color="#F7DD43"/>
<stop offset="1" stop-color="#F7DD43" stop-opacity="0"/>
</linearGradient>
<linearGradient id="paint62_linear_175_198" x1="938.5" y1="256" x2="938.5" y2="554.818" gradientUnits="userSpaceOnUse">
<stop stop-color="#F7DD43"/>
<stop offset="1" stop-color="#F7DD43" stop-opacity="0"/>
</linearGradient>
<linearGradient id="paint63_linear_175_198" x1="938.5" y1="256" x2="938.5" y2="554.818" gradientUnits="userSpaceOnUse">
<stop stop-color="#F7DD43"/>
<stop offset="1" stop-color="#F7DD43" stop-opacity="0"/>
</linearGradient>
<linearGradient id="paint64_linear_175_198" x1="938.5" y1="256" x2="938.5" y2="554.818" gradientUnits="userSpaceOnUse">
<stop stop-color="#F7DD43"/>
<stop offset="1" stop-color="#F7DD43" stop-opacity="0"/>
</linearGradient>
<linearGradient id="paint65_linear_175_198" x1="938.5" y1="256" x2="938.5" y2="554.818" gradientUnits="userSpaceOnUse">
<stop stop-color="#F7DD43"/>
<stop offset="1" stop-color="#F7DD43" stop-opacity="0"/>
</linearGradient>
<linearGradient id="paint66_linear_175_198" x1="938.5" y1="256" x2="938.5" y2="554.818" gradientUnits="userSpaceOnUse">
<stop stop-color="#F7DD43"/>
<stop offset="1" stop-color="#F7DD43" stop-opacity="0"/>
</linearGradient>
<linearGradient id="paint67_linear_175_198" x1="938.5" y1="256" x2="938.5" y2="554.818" gradientUnits="userSpaceOnUse">
<stop stop-color="#F7DD43"/>
<stop offset="1" stop-color="#F7DD43" stop-opacity="0"/>
</linearGradient>
<linearGradient id="paint68_linear_175_198" x1="938.5" y1="256" x2="938.5" y2="554.818" gradientUnits="userSpaceOnUse">
<stop stop-color="#F7DD43"/>
<stop offset="1" stop-color="#F7DD43" stop-opacity="0"/>
</linearGradient>
<linearGradient id="paint69_linear_175_198" x1="938.5" y1="256" x2="938.5" y2="554.818" gradientUnits="userSpaceOnUse">
<stop stop-color="#F7DD43"/>
<stop offset="1" stop-color="#F7DD43" stop-opacity="0"/>
</linearGradient>
<linearGradient id="paint70_linear_175_198" x1="938.5" y1="256" x2="938.5" y2="554.818" gradientUnits="userSpaceOnUse">
<stop stop-color="#F7DD43"/>
<stop offset="1" stop-color="#F7DD43" stop-opacity="0"/>
</linearGradient>
<linearGradient id="paint71_linear_175_198" x1="938.5" y1="256" x2="938.5" y2="554.818" gradientUnits="userSpaceOnUse">
<stop stop-color="#F7DD43"/>
<stop offset="1" stop-color="#F7DD43" stop-opacity="0"/>
</linearGradient>
<linearGradient id="paint72_linear_175_198" x1="938.5" y1="256" x2="938.5" y2="554.818" gradientUnits="userSpaceOnUse">
<stop stop-color="#F7DD43"/>
<stop offset="1" stop-color="#F7DD43" stop-opacity="0"/>
</linearGradient>
<linearGradient id="paint73_linear_175_198" x1="938.5" y1="256" x2="938.5" y2="554.818" gradientUnits="userSpaceOnUse">
<stop stop-color="#F7DD43"/>
<stop offset="1" stop-color="#F7DD43" stop-opacity="0"/>
</linearGradient>
<linearGradient id="paint74_linear_175_198" x1="938.5" y1="256" x2="938.5" y2="554.818" gradientUnits="userSpaceOnUse">
<stop stop-color="#F7DD43"/>
<stop offset="1" stop-color="#F7DD43" stop-opacity="0"/>
</linearGradient>
<linearGradient id="paint75_linear_175_198" x1="938.5" y1="256" x2="938.5" y2="554.818" gradientUnits="userSpaceOnUse">
<stop stop-color="#F7DD43"/>
<stop offset="1" stop-color="#F7DD43" stop-opacity="0"/>
</linearGradient>
<linearGradient id="paint76_linear_175_198" x1="938.5" y1="256" x2="938.5" y2="554.818" gradientUnits="userSpaceOnUse">
<stop stop-color="#F7DD43"/>
<stop offset="1" stop-color="#F7DD43" stop-opacity="0"/>
</linearGradient>
<linearGradient id="paint77_linear_175_198" x1="938.5" y1="256" x2="938.5" y2="554.818" gradientUnits="userSpaceOnUse">
<stop stop-color="#F7DD43"/>
<stop offset="1" stop-color="#F7DD43" stop-opacity="0"/>
</linearGradient>
<linearGradient id="paint78_linear_175_198" x1="938.5" y1="256" x2="938.5" y2="554.818" gradientUnits="userSpaceOnUse">
<stop stop-color="#F7DD43"/>
<stop offset="1" stop-color="#F7DD43" stop-opacity="0"/>
</linearGradient>
<linearGradient id="paint79_linear_175_198" x1="938.5" y1="256" x2="938.5" y2="554.818" gradientUnits="userSpaceOnUse">
<stop stop-color="#F7DD43"/>
<stop offset="1" stop-color="#F7DD43" stop-opacity="0"/>
</linearGradient>
<linearGradient id="paint80_linear_175_198" x1="938.5" y1="256" x2="938.5" y2="554.818" gradientUnits="userSpaceOnUse">
<stop stop-color="#F7DD43"/>
<stop offset="1" stop-color="#F7DD43" stop-opacity="0"/>
</linearGradient>
<linearGradient id="paint81_linear_175_198" x1="938.5" y1="256" x2="938.5" y2="554.818" gradientUnits="userSpaceOnUse">
<stop stop-color="#F7DD43"/>
<stop offset="1" stop-color="#F7DD43" stop-opacity="0"/>
</linearGradient>
<linearGradient id="paint82_linear_175_198" x1="938.5" y1="256" x2="938.5" y2="554.818" gradientUnits="userSpaceOnUse">
<stop stop-color="#F7DD43"/>
<stop offset="1" stop-color="#F7DD43" stop-opacity="0"/>
</linearGradient>
<linearGradient id="paint83_linear_175_198" x1="938.5" y1="256" x2="938.5" y2="554.818" gradientUnits="userSpaceOnUse">
<stop stop-color="#F7DD43"/>
<stop offset="1" stop-color="#F7DD43" stop-opacity="0"/>
</linearGradient>
<linearGradient id="paint84_linear_175_198" x1="938.5" y1="256" x2="938.5" y2="554.818" gradientUnits="userSpaceOnUse">
<stop stop-color="#F7DD43"/>
<stop offset="1" stop-color="#F7DD43" stop-opacity="0"/>
</linearGradient>
<linearGradient id="paint85_linear_175_198" x1="938.5" y1="256" x2="938.5" y2="554.818" gradientUnits="userSpaceOnUse">
<stop stop-color="#F7DD43"/>
<stop offset="1" stop-color="#F7DD43" stop-opacity="0"/>
</linearGradient>
<linearGradient id="paint86_linear_175_198" x1="938.5" y1="256" x2="938.5" y2="554.818" gradientUnits="userSpaceOnUse">
<stop stop-color="#F7DD43"/>
<stop offset="1" stop-color="#F7DD43" stop-opacity="0"/>
</linearGradient>
<linearGradient id="paint87_linear_175_198" x1="938.5" y1="256" x2="938.5" y2="554.818" gradientUnits="userSpaceOnUse">
<stop stop-color="#F7DD43"/>
<stop offset="1" stop-color="#F7DD43" stop-opacity="0"/>
</linearGradient>
<linearGradient id="paint88_linear_175_198" x1="938.5" y1="256" x2="938.5" y2="554.818" gradientUnits="userSpaceOnUse">
<stop stop-color="#F7DD43"/>
<stop offset="1" stop-color="#F7DD43" stop-opacity="0"/>
</linearGradient>
<linearGradient id="paint89_linear_175_198" x1="938.5" y1="256" x2="938.5" y2="554.818" gradientUnits="userSpaceOnUse">
<stop stop-color="#F7DD43"/>
<stop offset="1" stop-color="#F7DD43" stop-opacity="0"/>
</linearGradient>
<linearGradient id="paint90_linear_175_198" x1="938.5" y1="256" x2="938.5" y2="554.818" gradientUnits="userSpaceOnUse">
<stop stop-color="#F7DD43"/>
<stop offset="1" stop-color="#F7DD43" stop-opacity="0"/>
</linearGradient>
<linearGradient id="paint91_linear_175_198" x1="938.5" y1="256" x2="938.5" y2="554.818" gradientUnits="userSpaceOnUse">
<stop stop-color="#F7DD43"/>
<stop offset="1" stop-color="#F7DD43" stop-opacity="0"/>
</linearGradient>
<linearGradient id="paint92_linear_175_198" x1="938.5" y1="256" x2="938.5" y2="554.818" gradientUnits="userSpaceOnUse">
<stop stop-color="#F7DD43"/>
<stop offset="1" stop-color="#F7DD43" stop-opacity="0"/>
</linearGradient>
<linearGradient id="paint93_linear_175_198" x1="938.5" y1="256" x2="938.5" y2="554.818" gradientUnits="userSpaceOnUse">
<stop stop-color="#F7DD43"/>
<stop offset="1" stop-color="#F7DD43" stop-opacity="0"/>
</linearGradient>
</defs>
</svg>
