<svg width="1015" height="937" viewBox="0 0 1015 937" fill="none" xmlns="http://www.w3.org/2000/svg">
<g opacity="0.2" filter="url(#filter0_f_175_198)">
<ellipse cx="534" cy="334.004" rx="597" ry="362.004" fill="#338AF3"/>
</g>
<path d="M107.094 578.099C108.425 578.099 109.433 578.751 110.117 580.055C110.814 581.344 111.163 583.222 111.163 585.686C111.163 588.151 110.814 590.036 110.117 591.34C109.433 592.644 108.425 593.296 107.094 593.296C105.775 593.296 104.767 592.644 104.07 591.34C103.373 590.036 103.025 588.151 103.025 585.686C103.025 583.236 103.373 581.359 104.07 580.055C104.767 578.751 105.775 578.099 107.094 578.099ZM104.35 585.686C104.35 587.435 104.487 588.803 104.761 589.792L108.904 580.27C108.469 579.596 107.865 579.259 107.094 579.259C106.235 579.259 105.563 579.79 105.078 580.85C104.593 581.896 104.35 583.508 104.35 585.686ZM107.094 592.113C107.965 592.113 108.643 591.59 109.128 590.544C109.613 589.484 109.856 587.865 109.856 585.686C109.856 583.838 109.7 582.405 109.389 581.387L105.246 590.996C105.694 591.741 106.31 592.113 107.094 592.113Z" fill="url(#paint0_linear_175_198)" fill-opacity="0.6"/>
<path d="M108.214 616.507H110.957V617.646H103.846V616.507H107.019V604.427L103.995 606.512L103.473 605.545L107.206 602.879H108.214V616.507Z" fill="url(#paint1_linear_175_198)" fill-opacity="0.6"/>
<path d="M107.094 627.23C108.425 627.23 109.433 627.882 110.117 629.186C110.814 630.476 111.163 632.353 111.163 634.818C111.163 637.282 110.814 639.167 110.117 640.471C109.433 641.775 108.425 642.427 107.094 642.427C105.775 642.427 104.767 641.775 104.07 640.471C103.373 639.167 103.025 637.282 103.025 634.818C103.025 632.367 103.373 630.49 104.07 629.186C104.767 627.882 105.775 627.23 107.094 627.23ZM104.35 634.818C104.35 636.566 104.487 637.934 104.761 638.923L108.904 629.401C108.469 628.727 107.865 628.391 107.094 628.391C106.235 628.391 105.563 628.921 105.078 629.981C104.593 631.027 104.35 632.64 104.35 634.818ZM107.094 641.245C107.965 641.245 108.643 640.722 109.128 639.676C109.613 638.615 109.856 636.996 109.856 634.818C109.856 632.969 109.7 631.536 109.389 630.519L105.246 640.127C105.694 640.872 106.31 641.245 107.094 641.245Z" fill="url(#paint2_linear_175_198)" fill-opacity="0.6"/>
<path d="M108.214 665.638H110.957V666.778H103.846V665.638H107.019V653.558L103.995 655.643L103.473 654.676L107.206 652.011H108.214V665.638Z" fill="url(#paint3_linear_175_198)" fill-opacity="0.6"/>
<path d="M108.214 690.204H110.957V691.343H103.846V690.204H107.019V678.124L103.995 680.209L103.473 679.242L107.206 676.576H108.214V690.204Z" fill="url(#paint4_linear_175_198)" fill-opacity="0.6"/>
<path d="M107.094 700.927C108.425 700.927 109.433 701.579 110.117 702.883C110.814 704.173 111.163 706.05 111.163 708.515C111.163 710.979 110.814 712.864 110.117 714.168C109.433 715.472 108.425 716.124 107.094 716.124C105.775 716.124 104.767 715.472 104.07 714.168C103.373 712.864 103.025 710.979 103.025 708.515C103.025 706.064 103.373 704.187 104.07 702.883C104.767 701.579 105.775 700.927 107.094 700.927ZM104.35 708.515C104.35 710.263 104.487 711.631 104.761 712.62L108.904 703.098C108.469 702.424 107.865 702.088 107.094 702.088C106.235 702.088 105.563 702.618 105.078 703.678C104.593 704.724 104.35 706.337 104.35 708.515ZM107.094 714.942C107.965 714.942 108.643 714.419 109.128 713.373C109.613 712.312 109.856 710.693 109.856 708.515C109.856 706.666 109.7 705.233 109.389 704.216L105.246 713.824C105.694 714.569 106.31 714.942 107.094 714.942Z" fill="url(#paint5_linear_175_198)" fill-opacity="0.6"/>
<path d="M108.214 739.335H110.957V740.475H103.846V739.335H107.019V727.255L103.995 729.34L103.473 728.373L107.206 725.708H108.214V739.335Z" fill="url(#paint6_linear_175_198)" fill-opacity="0.6"/>
<path d="M107.094 750.058C108.425 750.058 109.433 750.71 110.117 752.014C110.814 753.304 111.163 755.181 111.163 757.646C111.163 760.111 110.814 761.995 110.117 763.299C109.433 764.603 108.425 765.255 107.094 765.255C105.775 765.255 104.767 764.603 104.07 763.299C103.373 761.995 103.025 760.111 103.025 757.646C103.025 755.196 103.373 753.318 104.07 752.014C104.767 750.71 105.775 750.058 107.094 750.058ZM104.35 757.646C104.35 759.394 104.487 760.763 104.761 761.752L108.904 752.229C108.469 751.556 107.865 751.219 107.094 751.219C106.235 751.219 105.563 751.749 105.078 752.81C104.593 753.856 104.35 755.468 104.35 757.646ZM107.094 764.073C107.965 764.073 108.643 763.55 109.128 762.504C109.613 761.444 109.856 759.824 109.856 757.646C109.856 755.797 109.7 754.364 109.389 753.347L105.246 762.955C105.694 763.7 106.31 764.073 107.094 764.073Z" fill="url(#paint7_linear_175_198)" fill-opacity="0.6"/>
<path d="M107.094 774.624C108.425 774.624 109.433 775.276 110.117 776.58C110.814 777.87 111.163 779.747 111.163 782.212C111.163 784.676 110.814 786.561 110.117 787.865C109.433 789.169 108.425 789.821 107.094 789.821C105.775 789.821 104.767 789.169 104.07 787.865C103.373 786.561 103.025 784.676 103.025 782.212C103.025 779.761 103.373 777.884 104.07 776.58C104.767 775.276 105.775 774.624 107.094 774.624ZM104.35 782.212C104.35 783.96 104.487 785.328 104.761 786.317L108.904 776.795C108.469 776.121 107.865 775.785 107.094 775.785C106.235 775.785 105.563 776.315 105.078 777.375C104.593 778.421 104.35 780.034 104.35 782.212ZM107.094 788.639C107.965 788.639 108.643 788.116 109.128 787.07C109.613 786.009 109.856 784.39 109.856 782.212C109.856 780.363 109.7 778.93 109.389 777.913L105.246 787.521C105.694 788.266 106.31 788.639 107.094 788.639Z" fill="url(#paint8_linear_175_198)" fill-opacity="0.6"/>
<path d="M108.214 813.032H110.957V814.172H103.846V813.032H107.019V800.952L103.995 803.037L103.473 802.07L107.206 799.405H108.214V813.032Z" fill="url(#paint9_linear_175_198)" fill-opacity="0.6"/>
<path d="M107.094 823.755C108.425 823.755 109.433 824.407 110.117 825.711C110.814 827.001 111.163 828.878 111.163 831.343C111.163 833.808 110.814 835.692 110.117 836.996C109.433 838.3 108.425 838.952 107.094 838.952C105.775 838.952 104.767 838.3 104.07 836.996C103.373 835.692 103.025 833.808 103.025 831.343C103.025 828.893 103.373 827.015 104.07 825.711C104.767 824.407 105.775 823.755 107.094 823.755ZM104.35 831.343C104.35 833.091 104.487 834.46 104.761 835.449L108.904 825.926C108.469 825.253 107.865 824.916 107.094 824.916C106.235 824.916 105.563 825.446 105.078 826.507C104.593 827.553 104.35 829.165 104.35 831.343ZM107.094 837.77C107.965 837.77 108.643 837.247 109.128 836.201C109.613 835.141 109.856 833.521 109.856 831.343C109.856 829.494 109.7 828.061 109.389 827.044L105.246 836.652C105.694 837.397 106.31 837.77 107.094 837.77Z" fill="url(#paint10_linear_175_198)" fill-opacity="0.6"/>
<path d="M108.214 862.164H110.957V863.303H103.846V862.164H107.019V850.084L103.995 852.169L103.473 851.201L107.206 848.536H108.214V862.164Z" fill="url(#paint11_linear_175_198)" fill-opacity="0.6"/>
<path d="M108.214 886.729H110.957V887.869H103.846V886.729H107.019V874.649L103.995 876.734L103.473 875.767L107.206 873.102H108.214V886.729Z" fill="url(#paint12_linear_175_198)" fill-opacity="0.6"/>
<path d="M141.756 627.23C143.088 627.23 144.096 627.882 144.78 629.186C145.477 630.476 145.825 632.353 145.825 634.818C145.825 637.282 145.477 639.167 144.78 640.471C144.096 641.775 143.088 642.427 141.756 642.427C140.437 642.427 139.43 641.775 138.733 640.471C138.036 639.167 137.687 637.282 137.687 634.818C137.687 632.367 138.036 630.49 138.733 629.186C139.43 627.882 140.437 627.23 141.756 627.23ZM139.013 634.818C139.013 636.566 139.15 637.934 139.423 638.923L143.567 629.401C143.131 628.727 142.528 628.391 141.756 628.391C140.898 628.391 140.226 628.921 139.741 629.981C139.255 631.027 139.013 632.64 139.013 634.818ZM141.756 641.245C142.627 641.245 143.306 640.722 143.791 639.676C144.276 638.615 144.519 636.996 144.519 634.818C144.519 632.969 144.363 631.536 144.052 630.519L139.909 640.127C140.357 640.872 140.972 641.245 141.756 641.245Z" fill="url(#paint13_linear_175_198)" fill-opacity="0.6"/>
<path d="M142.876 665.638H145.62V666.778H138.509V665.638H141.682V653.558L138.658 655.643L138.135 654.676L141.868 652.011H142.876V665.638Z" fill="url(#paint14_linear_175_198)" fill-opacity="0.6"/>
<path d="M141.756 676.361C143.088 676.361 144.096 677.013 144.78 678.317C145.477 679.607 145.825 681.484 145.825 683.949C145.825 686.414 145.477 688.298 144.78 689.602C144.096 690.906 143.088 691.558 141.756 691.558C140.437 691.558 139.43 690.906 138.733 689.602C138.036 688.298 137.687 686.414 137.687 683.949C137.687 681.499 138.036 679.621 138.733 678.317C139.43 677.013 140.437 676.361 141.756 676.361ZM139.013 683.949C139.013 685.697 139.15 687.066 139.423 688.055L143.567 678.532C143.131 677.859 142.528 677.522 141.756 677.522C140.898 677.522 140.226 678.052 139.741 679.113C139.255 680.159 139.013 681.771 139.013 683.949ZM141.756 690.376C142.627 690.376 143.306 689.853 143.791 688.807C144.276 687.746 144.519 686.127 144.519 683.949C144.519 682.1 144.363 680.667 144.052 679.65L139.909 689.258C140.357 690.003 140.972 690.376 141.756 690.376Z" fill="url(#paint15_linear_175_198)" fill-opacity="0.6"/>
<path d="M141.756 700.927C143.088 700.927 144.096 701.579 144.78 702.883C145.477 704.173 145.825 706.05 145.825 708.515C145.825 710.979 145.477 712.864 144.78 714.168C144.096 715.472 143.088 716.124 141.756 716.124C140.437 716.124 139.43 715.472 138.733 714.168C138.036 712.864 137.687 710.979 137.687 708.515C137.687 706.064 138.036 704.187 138.733 702.883C139.43 701.579 140.437 700.927 141.756 700.927ZM139.013 708.515C139.013 710.263 139.15 711.631 139.423 712.62L143.567 703.098C143.131 702.424 142.528 702.088 141.756 702.088C140.898 702.088 140.226 702.618 139.741 703.678C139.255 704.724 139.013 706.337 139.013 708.515ZM141.756 714.942C142.627 714.942 143.306 714.419 143.791 713.373C144.276 712.312 144.519 710.693 144.519 708.515C144.519 706.666 144.363 705.233 144.052 704.216L139.909 713.824C140.357 714.569 140.972 714.942 141.756 714.942Z" fill="url(#paint16_linear_175_198)" fill-opacity="0.6"/>
<path d="M142.876 739.335H145.62V740.475H138.509V739.335H141.682V727.255L138.658 729.34L138.135 728.373L141.868 725.708H142.876V739.335Z" fill="url(#paint17_linear_175_198)" fill-opacity="0.6"/>
<path d="M141.756 750.058C143.088 750.058 144.096 750.71 144.78 752.014C145.477 753.304 145.825 755.181 145.825 757.646C145.825 760.111 145.477 761.995 144.78 763.299C144.096 764.603 143.088 765.255 141.756 765.255C140.437 765.255 139.43 764.603 138.733 763.299C138.036 761.995 137.687 760.111 137.687 757.646C137.687 755.196 138.036 753.318 138.733 752.014C139.43 750.71 140.437 750.058 141.756 750.058ZM139.013 757.646C139.013 759.394 139.15 760.763 139.423 761.752L143.567 752.229C143.131 751.556 142.528 751.219 141.756 751.219C140.898 751.219 140.226 751.749 139.741 752.81C139.255 753.856 139.013 755.468 139.013 757.646ZM141.756 764.073C142.627 764.073 143.306 763.55 143.791 762.504C144.276 761.444 144.519 759.824 144.519 757.646C144.519 755.797 144.363 754.364 144.052 753.347L139.909 762.955C140.357 763.7 140.972 764.073 141.756 764.073Z" fill="url(#paint18_linear_175_198)" fill-opacity="0.6"/>
<path d="M142.876 788.467H145.62V789.606H138.509V788.467H141.682V776.387L138.658 778.472L138.135 777.504L141.868 774.839H142.876V788.467Z" fill="url(#paint19_linear_175_198)" fill-opacity="0.6"/>
<path d="M141.756 799.19C143.088 799.19 144.096 799.842 144.78 801.146C145.477 802.435 145.825 804.313 145.825 806.777C145.825 809.242 145.477 811.127 144.78 812.431C144.096 813.735 143.088 814.387 141.756 814.387C140.437 814.387 139.43 813.735 138.733 812.431C138.036 811.127 137.687 809.242 137.687 806.777C137.687 804.327 138.036 802.45 138.733 801.146C139.43 799.842 140.437 799.19 141.756 799.19ZM139.013 806.777C139.013 808.526 139.15 809.894 139.423 810.883L143.567 801.361C143.131 800.687 142.528 800.35 141.756 800.35C140.898 800.35 140.226 800.881 139.741 801.941C139.255 802.987 139.013 804.599 139.013 806.777ZM141.756 813.204C142.627 813.204 143.306 812.681 143.791 811.635C144.276 810.575 144.519 808.956 144.519 806.777C144.519 804.929 144.363 803.496 144.052 802.478L139.909 812.087C140.357 812.832 140.972 813.204 141.756 813.204Z" fill="url(#paint20_linear_175_198)" fill-opacity="0.6"/>
<path d="M141.756 823.755C143.088 823.755 144.096 824.407 144.78 825.711C145.477 827.001 145.825 828.878 145.825 831.343C145.825 833.808 145.477 835.692 144.78 836.996C144.096 838.3 143.088 838.952 141.756 838.952C140.437 838.952 139.43 838.3 138.733 836.996C138.036 835.692 137.687 833.808 137.687 831.343C137.687 828.893 138.036 827.015 138.733 825.711C139.43 824.407 140.437 823.755 141.756 823.755ZM139.013 831.343C139.013 833.091 139.15 834.46 139.423 835.449L143.567 825.926C143.131 825.253 142.528 824.916 141.756 824.916C140.898 824.916 140.226 825.446 139.741 826.507C139.255 827.553 139.013 829.165 139.013 831.343ZM141.756 837.77C142.627 837.77 143.306 837.247 143.791 836.201C144.276 835.141 144.519 833.521 144.519 831.343C144.519 829.494 144.363 828.061 144.052 827.044L139.909 836.652C140.357 837.397 140.972 837.77 141.756 837.77Z" fill="url(#paint21_linear_175_198)" fill-opacity="0.6"/>
<path d="M142.876 862.164H145.62V863.303H138.509V862.164H141.682V850.084L138.658 852.169L138.135 851.201L141.868 848.536H142.876V862.164Z" fill="url(#paint22_linear_175_198)" fill-opacity="0.6"/>
<path d="M141.756 872.887C143.088 872.887 144.096 873.539 144.78 874.843C145.477 876.132 145.825 878.01 145.825 880.474C145.825 882.939 145.477 884.824 144.78 886.128C144.096 887.432 143.088 888.084 141.756 888.084C140.437 888.084 139.43 887.432 138.733 886.128C138.036 884.824 137.687 882.939 137.687 880.474C137.687 878.024 138.036 876.147 138.733 874.843C139.43 873.539 140.437 872.887 141.756 872.887ZM139.013 880.474C139.013 882.223 139.15 883.591 139.423 884.58L143.567 875.058C143.131 874.384 142.528 874.047 141.756 874.047C140.898 874.047 140.226 874.578 139.741 875.638C139.255 876.684 139.013 878.296 139.013 880.474ZM141.756 886.901C142.627 886.901 143.306 886.378 143.791 885.332C144.276 884.272 144.519 882.653 144.519 880.474C144.519 878.626 144.363 877.193 144.052 876.175L139.909 885.784C140.357 886.529 140.972 886.901 141.756 886.901Z" fill="url(#paint23_linear_175_198)" fill-opacity="0.6"/>
<path d="M142.876 911.295H145.62V912.434H138.509V911.295H141.682V899.215L138.658 901.3L138.135 900.333L141.868 897.667H142.876V911.295Z" fill="url(#paint24_linear_175_198)" fill-opacity="0.6"/>
<path d="M142.876 935.861H145.62V937H138.509V935.861H141.682V923.781L138.658 925.866L138.135 924.898L141.868 922.233H142.876V935.861Z" fill="url(#paint25_linear_175_198)" fill-opacity="0.6"/>
<path d="M89.7623 651.796C91.0937 651.796 92.1016 652.448 92.786 653.752C93.4828 655.041 93.8312 656.919 93.8312 659.383C93.8312 661.848 93.4828 663.733 92.786 665.037C92.1016 666.341 91.0937 666.993 89.7623 666.993C88.4434 666.993 87.4355 666.341 86.7387 665.037C86.0419 663.733 85.6935 661.848 85.6935 659.383C85.6935 656.933 86.0419 655.056 86.7387 653.752C87.4355 652.448 88.4434 651.796 89.7623 651.796ZM87.0187 659.383C87.0187 661.132 87.1555 662.5 87.4293 663.489L91.5728 653.967C91.1373 653.293 90.5338 652.956 89.7623 652.956C88.9038 652.956 88.2319 653.487 87.7466 654.547C87.2613 655.593 87.0187 657.205 87.0187 659.383ZM89.7623 665.81C90.6334 665.81 91.3115 665.287 91.7968 664.241C92.2821 663.181 92.5247 661.562 92.5247 659.383C92.5247 657.535 92.3692 656.102 92.0581 655.084L87.9146 664.693C88.3625 665.438 88.9784 665.81 89.7623 665.81Z" fill="url(#paint26_linear_175_198)" fill-opacity="0.6"/>
<path d="M89.7623 676.361C91.0937 676.361 92.1016 677.013 92.786 678.317C93.4828 679.607 93.8312 681.484 93.8312 683.949C93.8312 686.414 93.4828 688.298 92.786 689.602C92.1016 690.906 91.0937 691.558 89.7623 691.558C88.4434 691.558 87.4355 690.906 86.7387 689.602C86.0419 688.298 85.6935 686.414 85.6935 683.949C85.6935 681.499 86.0419 679.621 86.7387 678.317C87.4355 677.013 88.4434 676.361 89.7623 676.361ZM87.0187 683.949C87.0187 685.697 87.1555 687.066 87.4293 688.055L91.5728 678.532C91.1373 677.859 90.5338 677.522 89.7623 677.522C88.9038 677.522 88.2319 678.052 87.7466 679.113C87.2613 680.159 87.0187 681.771 87.0187 683.949ZM89.7623 690.376C90.6334 690.376 91.3115 689.853 91.7968 688.807C92.2821 687.746 92.5247 686.127 92.5247 683.949C92.5247 682.1 92.3692 680.667 92.0581 679.65L87.9146 689.258C88.3625 690.003 88.9784 690.376 89.7623 690.376Z" fill="url(#paint27_linear_175_198)" fill-opacity="0.6"/>
<path d="M90.8822 714.77H93.6259V715.909H86.5147V714.77H89.6877V702.69L86.664 704.775L86.1414 703.807L89.8743 701.142H90.8822V714.77Z" fill="url(#paint28_linear_175_198)" fill-opacity="0.6"/>
<path d="M89.7623 725.493C91.0937 725.493 92.1016 726.145 92.786 727.449C93.4828 728.738 93.8312 730.616 93.8312 733.08C93.8312 735.545 93.4828 737.43 92.786 738.734C92.1016 740.038 91.0937 740.69 89.7623 740.69C88.4434 740.69 87.4355 740.038 86.7387 738.734C86.0419 737.43 85.6935 735.545 85.6935 733.08C85.6935 730.63 86.0419 728.753 86.7387 727.449C87.4355 726.145 88.4434 725.493 89.7623 725.493ZM87.0187 733.08C87.0187 734.829 87.1555 736.197 87.4293 737.186L91.5728 727.664C91.1373 726.99 90.5338 726.653 89.7623 726.653C88.9038 726.653 88.2319 727.184 87.7466 728.244C87.2613 729.29 87.0187 730.902 87.0187 733.08ZM89.7623 739.507C90.6334 739.507 91.3115 738.984 91.7968 737.938C92.2821 736.878 92.5247 735.259 92.5247 733.08C92.5247 731.232 92.3692 729.799 92.0581 728.781L87.9146 738.39C88.3625 739.135 88.9784 739.507 89.7623 739.507Z" fill="url(#paint29_linear_175_198)" fill-opacity="0.6"/>
<path d="M90.8822 763.901H93.6259V765.04H86.5147V763.901H89.6877V751.821L86.664 753.906L86.1414 752.939L89.8743 750.273H90.8822V763.901Z" fill="url(#paint30_linear_175_198)" fill-opacity="0.6"/>
<path d="M90.8822 788.467H93.6259V789.606H86.5147V788.467H89.6877V776.387L86.664 778.472L86.1414 777.504L89.8743 774.839H90.8822V788.467Z" fill="url(#paint31_linear_175_198)" fill-opacity="0.6"/>
<path d="M125.545 616.507H128.289V617.646H121.177V616.507H124.35V604.427L121.327 606.512L120.804 605.545L124.537 602.879H125.545V616.507Z" fill="url(#paint32_linear_175_198)" fill-opacity="0.6"/>
<path d="M124.425 627.23C125.756 627.23 126.764 627.882 127.449 629.186C128.145 630.476 128.494 632.353 128.494 634.818C128.494 637.282 128.145 639.167 127.449 640.471C126.764 641.775 125.756 642.427 124.425 642.427C123.106 642.427 122.098 641.775 121.401 640.471C120.705 639.167 120.356 637.282 120.356 634.818C120.356 632.367 120.705 630.49 121.401 629.186C122.098 627.882 123.106 627.23 124.425 627.23ZM121.681 634.818C121.681 636.566 121.818 637.934 122.092 638.923L126.235 629.401C125.8 628.727 125.196 628.391 124.425 628.391C123.566 628.391 122.895 628.921 122.409 629.981C121.924 631.027 121.681 632.64 121.681 634.818ZM124.425 641.245C125.296 641.245 125.974 640.722 126.459 639.676C126.945 638.615 127.187 636.996 127.187 634.818C127.187 632.969 127.032 631.536 126.721 630.519L122.577 640.127C123.025 640.872 123.641 641.245 124.425 641.245Z" fill="url(#paint33_linear_175_198)" fill-opacity="0.6"/>
<path d="M125.545 665.638H128.289V666.778H121.177V665.638H124.35V653.558L121.327 655.643L120.804 654.676L124.537 652.011H125.545V665.638Z" fill="url(#paint34_linear_175_198)" fill-opacity="0.6"/>
<path d="M125.545 690.204H128.289V691.343H121.177V690.204H124.35V678.124L121.327 680.209L120.804 679.242L124.537 676.576H125.545V690.204Z" fill="url(#paint35_linear_175_198)" fill-opacity="0.6"/>
<path d="M124.425 700.927C125.756 700.927 126.764 701.579 127.449 702.883C128.145 704.173 128.494 706.05 128.494 708.515C128.494 710.979 128.145 712.864 127.449 714.168C126.764 715.472 125.756 716.124 124.425 716.124C123.106 716.124 122.098 715.472 121.401 714.168C120.705 712.864 120.356 710.979 120.356 708.515C120.356 706.064 120.705 704.187 121.401 702.883C122.098 701.579 123.106 700.927 124.425 700.927ZM121.681 708.515C121.681 710.263 121.818 711.631 122.092 712.62L126.235 703.098C125.8 702.424 125.196 702.088 124.425 702.088C123.566 702.088 122.895 702.618 122.409 703.678C121.924 704.724 121.681 706.337 121.681 708.515ZM124.425 714.942C125.296 714.942 125.974 714.419 126.459 713.373C126.945 712.312 127.187 710.693 127.187 708.515C127.187 706.666 127.032 705.233 126.721 704.216L122.577 713.824C123.025 714.569 123.641 714.942 124.425 714.942Z" fill="url(#paint36_linear_175_198)" fill-opacity="0.6"/>
<path d="M125.545 739.335H128.289V740.475H121.177V739.335H124.35V727.255L121.327 729.34L120.804 728.373L124.537 725.708H125.545V739.335Z" fill="url(#paint37_linear_175_198)" fill-opacity="0.6"/>
<path d="M125.545 763.901H128.289V765.04H121.177V763.901H124.35V751.821L121.327 753.906L120.804 752.939L124.537 750.273H125.545V763.901Z" fill="url(#paint38_linear_175_198)" fill-opacity="0.6"/>
<path d="M124.425 774.624C125.756 774.624 126.764 775.276 127.449 776.58C128.145 777.87 128.494 779.747 128.494 782.212C128.494 784.676 128.145 786.561 127.449 787.865C126.764 789.169 125.756 789.821 124.425 789.821C123.106 789.821 122.098 789.169 121.401 787.865C120.705 786.561 120.356 784.676 120.356 782.212C120.356 779.761 120.705 777.884 121.401 776.58C122.098 775.276 123.106 774.624 124.425 774.624ZM121.681 782.212C121.681 783.96 121.818 785.328 122.092 786.317L126.235 776.795C125.8 776.121 125.196 775.785 124.425 775.785C123.566 775.785 122.895 776.315 122.409 777.375C121.924 778.421 121.681 780.034 121.681 782.212ZM124.425 788.639C125.296 788.639 125.974 788.116 126.459 787.07C126.945 786.009 127.187 784.39 127.187 782.212C127.187 780.363 127.032 778.93 126.721 777.913L122.577 787.521C123.025 788.266 123.641 788.639 124.425 788.639Z" fill="url(#paint39_linear_175_198)" fill-opacity="0.6"/>
<path d="M125.545 813.032H128.289V814.172H121.177V813.032H124.35V800.952L121.327 803.037L120.804 802.07L124.537 799.405H125.545V813.032Z" fill="url(#paint40_linear_175_198)" fill-opacity="0.6"/>
<path d="M124.425 823.755C125.756 823.755 126.764 824.407 127.449 825.711C128.145 827.001 128.494 828.878 128.494 831.343C128.494 833.808 128.145 835.692 127.449 836.996C126.764 838.3 125.756 838.952 124.425 838.952C123.106 838.952 122.098 838.3 121.401 836.996C120.705 835.692 120.356 833.808 120.356 831.343C120.356 828.893 120.705 827.015 121.401 825.711C122.098 824.407 123.106 823.755 124.425 823.755ZM121.681 831.343C121.681 833.091 121.818 834.46 122.092 835.449L126.235 825.926C125.8 825.253 125.196 824.916 124.425 824.916C123.566 824.916 122.895 825.446 122.409 826.507C121.924 827.553 121.681 829.165 121.681 831.343ZM124.425 837.77C125.296 837.77 125.974 837.247 126.459 836.201C126.945 835.141 127.187 833.521 127.187 831.343C127.187 829.494 127.032 828.061 126.721 827.044L122.577 836.652C123.025 837.397 123.641 837.77 124.425 837.77Z" fill="url(#paint41_linear_175_198)" fill-opacity="0.6"/>
<path d="M159.088 602.664C160.419 602.664 161.427 603.316 162.111 604.62C162.808 605.91 163.157 607.787 163.157 610.252C163.157 612.717 162.808 614.601 162.111 615.905C161.427 617.209 160.419 617.861 159.088 617.861C157.769 617.861 156.761 617.209 156.064 615.905C155.367 614.601 155.019 612.717 155.019 610.252C155.019 607.802 155.367 605.924 156.064 604.62C156.761 603.316 157.769 602.664 159.088 602.664ZM156.344 610.252C156.344 612 156.481 613.369 156.755 614.358L160.898 604.835C160.463 604.162 159.859 603.825 159.088 603.825C158.229 603.825 157.557 604.355 157.072 605.416C156.587 606.462 156.344 608.074 156.344 610.252ZM159.088 616.679C159.959 616.679 160.637 616.156 161.122 615.11C161.607 614.049 161.85 612.43 161.85 610.252C161.85 608.403 161.695 606.97 161.383 605.953L157.24 615.561C157.688 616.306 158.304 616.679 159.088 616.679Z" fill="url(#paint42_linear_175_198)" fill-opacity="0.6"/>
<path d="M160.208 641.073H162.951V642.212H155.84V641.073H159.013V628.993L155.989 631.078L155.467 630.11L159.2 627.445H160.208V641.073Z" fill="url(#paint43_linear_175_198)" fill-opacity="0.6"/>
<path d="M160.208 665.638H162.951V666.778H155.84V665.638H159.013V653.558L155.989 655.643L155.467 654.676L159.2 652.011H160.208V665.638Z" fill="url(#paint44_linear_175_198)" fill-opacity="0.6"/>
<path d="M159.088 676.361C160.419 676.361 161.427 677.013 162.111 678.317C162.808 679.607 163.157 681.484 163.157 683.949C163.157 686.414 162.808 688.298 162.111 689.602C161.427 690.906 160.419 691.558 159.088 691.558C157.769 691.558 156.761 690.906 156.064 689.602C155.367 688.298 155.019 686.414 155.019 683.949C155.019 681.499 155.367 679.621 156.064 678.317C156.761 677.013 157.769 676.361 159.088 676.361ZM156.344 683.949C156.344 685.697 156.481 687.066 156.755 688.055L160.898 678.532C160.463 677.859 159.859 677.522 159.088 677.522C158.229 677.522 157.557 678.052 157.072 679.113C156.587 680.159 156.344 681.771 156.344 683.949ZM159.088 690.376C159.959 690.376 160.637 689.853 161.122 688.807C161.607 687.746 161.85 686.127 161.85 683.949C161.85 682.1 161.695 680.667 161.383 679.65L157.24 689.258C157.688 690.003 158.304 690.376 159.088 690.376Z" fill="url(#paint45_linear_175_198)" fill-opacity="0.6"/>
<path d="M159.088 700.927C160.419 700.927 161.427 701.579 162.111 702.883C162.808 704.173 163.157 706.05 163.157 708.515C163.157 710.979 162.808 712.864 162.111 714.168C161.427 715.472 160.419 716.124 159.088 716.124C157.769 716.124 156.761 715.472 156.064 714.168C155.367 712.864 155.019 710.979 155.019 708.515C155.019 706.064 155.367 704.187 156.064 702.883C156.761 701.579 157.769 700.927 159.088 700.927ZM156.344 708.515C156.344 710.263 156.481 711.631 156.755 712.62L160.898 703.098C160.463 702.424 159.859 702.088 159.088 702.088C158.229 702.088 157.557 702.618 157.072 703.678C156.587 704.724 156.344 706.337 156.344 708.515ZM159.088 714.942C159.959 714.942 160.637 714.419 161.122 713.373C161.607 712.312 161.85 710.693 161.85 708.515C161.85 706.666 161.695 705.233 161.383 704.216L157.24 713.824C157.688 714.569 158.304 714.942 159.088 714.942Z" fill="url(#paint46_linear_175_198)" fill-opacity="0.6"/>
<g opacity="0.6">
<path d="M896.768 267.809C898.038 267.809 898.999 268.435 899.652 269.686C900.317 270.924 900.649 272.725 900.649 275.091C900.649 277.456 900.317 279.264 899.652 280.516C898.999 281.767 898.038 282.393 896.768 282.393C895.509 282.393 894.548 281.767 893.883 280.516C893.218 279.264 892.886 277.456 892.886 275.091C892.886 272.739 893.218 270.938 893.883 269.686C894.548 268.435 895.509 267.809 896.768 267.809ZM894.15 275.091C894.15 276.769 894.281 278.082 894.542 279.031L898.495 269.893C898.079 269.246 897.504 268.923 896.768 268.923C895.949 268.923 895.307 269.432 894.845 270.45C894.382 271.453 894.15 273.001 894.15 275.091ZM896.768 281.258C897.599 281.258 898.246 280.757 898.708 279.753C899.171 278.735 899.403 277.181 899.403 275.091C899.403 273.317 899.255 271.942 898.958 270.965L895.005 280.186C895.432 280.901 896.02 281.258 896.768 281.258Z" fill="url(#paint47_linear_175_198)"/>
<path d="M897.836 304.668H900.454V305.761H893.669V304.668H896.696V293.075L893.812 295.076L893.313 294.148L896.874 291.59H897.836V304.668Z" fill="url(#paint48_linear_175_198)"/>
<path d="M896.768 314.958C898.038 314.958 898.999 315.584 899.652 316.835C900.317 318.073 900.649 319.875 900.649 322.24C900.649 324.605 900.317 326.414 899.652 327.665C898.999 328.916 898.038 329.542 896.768 329.542C895.509 329.542 894.548 328.916 893.883 327.665C893.218 326.414 892.886 324.605 892.886 322.24C892.886 319.888 893.218 318.087 893.883 316.835C894.548 315.584 895.509 314.958 896.768 314.958ZM894.15 322.24C894.15 323.918 894.281 325.231 894.542 326.18L898.495 317.042C898.079 316.395 897.504 316.072 896.768 316.072C895.949 316.072 895.307 316.581 894.845 317.599C894.382 318.603 894.15 320.15 894.15 322.24ZM896.768 328.408C897.599 328.408 898.246 327.906 898.708 326.902C899.171 325.884 899.403 324.33 899.403 322.24C899.403 320.466 899.255 319.091 898.958 318.114L895.005 327.335C895.432 328.05 896.02 328.408 896.768 328.408Z" fill="url(#paint49_linear_175_198)"/>
<path d="M897.836 351.817H900.454V352.91H893.669V351.817H896.696V340.224L893.812 342.225L893.313 341.297L896.874 338.739H897.836V351.817Z" fill="url(#paint50_linear_175_198)"/>
<path d="M897.836 375.392H900.454V376.485H893.669V375.392H896.696V363.799L893.812 365.8L893.313 364.872L896.874 362.314H897.836V375.392Z" fill="url(#paint51_linear_175_198)"/>
<path d="M896.768 385.682C898.038 385.682 898.999 386.308 899.652 387.559C900.317 388.797 900.649 390.598 900.649 392.964C900.649 395.329 900.317 397.137 899.652 398.389C898.999 399.64 898.038 400.266 896.768 400.266C895.509 400.266 894.548 399.64 893.883 398.389C893.218 397.137 892.886 395.329 892.886 392.964C892.886 390.612 893.218 388.811 893.883 387.559C894.548 386.308 895.509 385.682 896.768 385.682ZM894.15 392.964C894.15 394.641 894.281 395.955 894.542 396.903L898.495 387.765C898.079 387.119 897.504 386.796 896.768 386.796C895.949 386.796 895.307 387.305 894.845 388.322C894.382 389.326 894.15 390.873 894.15 392.964ZM896.768 399.131C897.599 399.131 898.246 398.629 898.708 397.625C899.171 396.608 899.403 395.054 899.403 392.964C899.403 391.19 899.255 389.814 898.958 388.838L895.005 398.059C895.432 398.774 896.02 399.131 896.768 399.131Z" fill="url(#paint52_linear_175_198)"/>
<path d="M897.836 422.541H900.454V423.634H893.669V422.541H896.696V410.948L893.812 412.949L893.313 412.021L896.874 409.463H897.836V422.541Z" fill="url(#paint53_linear_175_198)"/>
<path d="M896.768 432.831C898.038 432.831 898.999 433.457 899.652 434.708C900.317 435.946 900.649 437.747 900.649 440.113C900.649 442.478 900.317 444.286 899.652 445.538C898.999 446.789 898.038 447.415 896.768 447.415C895.509 447.415 894.548 446.789 893.883 445.538C893.218 444.286 892.886 442.478 892.886 440.113C892.886 437.761 893.218 435.96 893.883 434.708C894.548 433.457 895.509 432.831 896.768 432.831ZM894.15 440.113C894.15 441.79 894.281 443.104 894.542 444.053L898.495 434.914C898.079 434.268 897.504 433.945 896.768 433.945C895.949 433.945 895.307 434.454 894.845 435.471C894.382 436.475 894.15 438.022 894.15 440.113ZM896.768 446.28C897.599 446.28 898.246 445.778 898.708 444.775C899.171 443.757 899.403 442.203 899.403 440.113C899.403 438.339 899.255 436.963 898.958 435.987L895.005 445.208C895.432 445.923 896.02 446.28 896.768 446.28Z" fill="url(#paint54_linear_175_198)"/>
<path d="M896.768 456.406C898.038 456.406 898.999 457.031 899.652 458.283C900.317 459.52 900.649 461.322 900.649 463.687C900.649 466.053 900.317 467.861 899.652 469.112C898.999 470.364 898.038 470.989 896.768 470.989C895.509 470.989 894.548 470.364 893.883 469.112C893.218 467.861 892.886 466.053 892.886 463.687C892.886 461.336 893.218 459.534 893.883 458.283C894.548 457.031 895.509 456.406 896.768 456.406ZM894.15 463.687C894.15 465.365 894.281 466.678 894.542 467.627L898.495 458.489C898.079 457.843 897.504 457.52 896.768 457.52C895.949 457.52 895.307 458.028 894.845 459.046C894.382 460.05 894.15 461.597 894.15 463.687ZM896.768 469.855C897.599 469.855 898.246 469.353 898.708 468.349C899.171 467.331 899.403 465.777 899.403 463.687C899.403 461.913 899.255 460.538 898.958 459.562L895.005 468.782C895.432 469.497 896.02 469.855 896.768 469.855Z" fill="url(#paint55_linear_175_198)"/>
<path d="M897.836 493.264H900.454V494.358H893.669V493.264H896.696V481.672L893.812 483.673L893.313 482.744L896.874 480.186H897.836V493.264Z" fill="url(#paint56_linear_175_198)"/>
<path d="M896.768 503.555C898.038 503.555 898.999 504.18 899.652 505.432C900.317 506.67 900.649 508.471 900.649 510.836C900.649 513.202 900.317 515.01 899.652 516.261C898.999 517.513 898.038 518.139 896.768 518.139C895.509 518.139 894.548 517.513 893.883 516.261C893.218 515.01 892.886 513.202 892.886 510.836C892.886 508.485 893.218 506.683 893.883 505.432C894.548 504.18 895.509 503.555 896.768 503.555ZM894.15 510.836C894.15 512.514 894.281 513.827 894.542 514.776L898.495 505.638C898.079 504.992 897.504 504.669 896.768 504.669C895.949 504.669 895.307 505.177 894.845 506.195C894.382 507.199 894.15 508.746 894.15 510.836ZM896.768 517.004C897.599 517.004 898.246 516.502 898.708 515.498C899.171 514.481 899.403 512.927 899.403 510.836C899.403 509.062 899.255 507.687 898.958 506.711L895.005 515.931C895.432 516.646 896.02 517.004 896.768 517.004Z" fill="url(#paint57_linear_175_198)"/>
<path d="M897.836 540.414H900.454V541.507H893.669V540.414H896.696V528.821L893.812 530.822L893.313 529.893L896.874 527.336H897.836V540.414Z" fill="url(#paint58_linear_175_198)"/>
<path d="M897.836 563.988H900.454V565.081H893.669V563.988H896.696V552.395L893.812 554.396L893.313 553.468L896.874 550.91H897.836V563.988Z" fill="url(#paint59_linear_175_198)"/>
<path d="M929.837 314.958C931.107 314.958 932.068 315.584 932.721 316.835C933.386 318.073 933.718 319.875 933.718 322.24C933.718 324.605 933.386 326.414 932.721 327.665C932.068 328.916 931.107 329.542 929.837 329.542C928.578 329.542 927.617 328.916 926.952 327.665C926.287 326.414 925.955 324.605 925.955 322.24C925.955 319.888 926.287 318.087 926.952 316.835C927.617 315.584 928.578 314.958 929.837 314.958ZM927.219 322.24C927.219 323.918 927.35 325.231 927.611 326.18L931.564 317.042C931.148 316.395 930.573 316.072 929.837 316.072C929.017 316.072 928.376 316.581 927.913 317.599C927.451 318.603 927.219 320.15 927.219 322.24ZM929.837 328.408C930.668 328.408 931.315 327.906 931.777 326.902C932.24 325.884 932.472 324.33 932.472 322.24C932.472 320.466 932.324 319.091 932.027 318.114L928.074 327.335C928.501 328.05 929.089 328.408 929.837 328.408Z" fill="url(#paint60_linear_175_198)"/>
<path d="M930.905 351.817H933.523V352.91H926.738V351.817H929.765V340.224L926.881 342.225L926.382 341.297L929.943 338.739H930.905V351.817Z" fill="url(#paint61_linear_175_198)"/>
<path d="M929.837 362.107C931.107 362.107 932.068 362.733 932.721 363.985C933.386 365.222 933.718 367.024 933.718 369.389C933.718 371.754 933.386 373.563 932.721 374.814C932.068 376.066 931.107 376.691 929.837 376.691C928.578 376.691 927.617 376.066 926.952 374.814C926.287 373.563 925.955 371.754 925.955 369.389C925.955 367.037 926.287 365.236 926.952 363.985C927.617 362.733 928.578 362.107 929.837 362.107ZM927.219 369.389C927.219 371.067 927.35 372.38 927.611 373.329L931.564 364.191C931.148 363.544 930.573 363.221 929.837 363.221C929.017 363.221 928.376 363.73 927.913 364.748C927.451 365.752 927.219 367.299 927.219 369.389ZM929.837 375.557C930.668 375.557 931.315 375.055 931.777 374.051C932.24 373.033 932.472 371.479 932.472 369.389C932.472 367.615 932.324 366.24 932.027 365.263L928.074 374.484C928.501 375.199 929.089 375.557 929.837 375.557Z" fill="url(#paint62_linear_175_198)"/>
<path d="M929.837 385.682C931.107 385.682 932.068 386.308 932.721 387.559C933.386 388.797 933.718 390.598 933.718 392.964C933.718 395.329 933.386 397.137 932.721 398.389C932.068 399.64 931.107 400.266 929.837 400.266C928.578 400.266 927.617 399.64 926.952 398.389C926.287 397.137 925.955 395.329 925.955 392.964C925.955 390.612 926.287 388.811 926.952 387.559C927.617 386.308 928.578 385.682 929.837 385.682ZM927.219 392.964C927.219 394.641 927.35 395.955 927.611 396.903L931.564 387.765C931.148 387.119 930.573 386.796 929.837 386.796C929.017 386.796 928.376 387.305 927.913 388.322C927.451 389.326 927.219 390.873 927.219 392.964ZM929.837 399.131C930.668 399.131 931.315 398.629 931.777 397.625C932.24 396.608 932.472 395.054 932.472 392.964C932.472 391.19 932.324 389.814 932.027 388.838L928.074 398.059C928.501 398.774 929.089 399.131 929.837 399.131Z" fill="url(#paint63_linear_175_198)"/>
<path d="M930.905 422.541H933.523V423.634H926.738V422.541H929.765V410.948L926.881 412.949L926.382 412.021L929.943 409.463H930.905V422.541Z" fill="url(#paint64_linear_175_198)"/>
<path d="M929.837 432.831C931.107 432.831 932.068 433.457 932.721 434.708C933.386 435.946 933.718 437.747 933.718 440.113C933.718 442.478 933.386 444.286 932.721 445.538C932.068 446.789 931.107 447.415 929.837 447.415C928.578 447.415 927.617 446.789 926.952 445.538C926.287 444.286 925.955 442.478 925.955 440.113C925.955 437.761 926.287 435.96 926.952 434.708C927.617 433.457 928.578 432.831 929.837 432.831ZM927.219 440.113C927.219 441.79 927.35 443.104 927.611 444.053L931.564 434.914C931.148 434.268 930.573 433.945 929.837 433.945C929.017 433.945 928.376 434.454 927.913 435.471C927.451 436.475 927.219 438.022 927.219 440.113ZM929.837 446.28C930.668 446.28 931.315 445.778 931.777 444.775C932.24 443.757 932.472 442.203 932.472 440.113C932.472 438.339 932.324 436.963 932.027 435.987L928.074 445.208C928.501 445.923 929.089 446.28 929.837 446.28Z" fill="url(#paint65_linear_175_198)"/>
<path d="M930.905 469.69H933.523V470.783H926.738V469.69H929.765V458.097L926.881 460.098L926.382 459.17L929.943 456.612H930.905V469.69Z" fill="url(#paint66_linear_175_198)"/>
<path d="M929.837 479.98C931.107 479.98 932.068 480.606 932.721 481.857C933.386 483.095 933.718 484.896 933.718 487.262C933.718 489.627 933.386 491.435 932.721 492.687C932.068 493.938 931.107 494.564 929.837 494.564C928.578 494.564 927.617 493.938 926.952 492.687C926.287 491.435 925.955 489.627 925.955 487.262C925.955 484.91 926.287 483.109 926.952 481.857C927.617 480.606 928.578 479.98 929.837 479.98ZM927.219 487.262C927.219 488.939 927.35 490.253 927.611 491.202L931.564 482.064C931.148 481.417 930.573 481.094 929.837 481.094C929.017 481.094 928.376 481.603 927.913 482.621C927.451 483.624 927.219 485.171 927.219 487.262ZM929.837 493.429C930.668 493.429 931.315 492.928 931.777 491.924C932.24 490.906 932.472 489.352 932.472 487.262C932.472 485.488 932.324 484.113 932.027 483.136L928.074 492.357C928.501 493.072 929.089 493.429 929.837 493.429Z" fill="url(#paint67_linear_175_198)"/>
<path d="M929.837 503.555C931.107 503.555 932.068 504.18 932.721 505.432C933.386 506.67 933.718 508.471 933.718 510.836C933.718 513.202 933.386 515.01 932.721 516.261C932.068 517.513 931.107 518.139 929.837 518.139C928.578 518.139 927.617 517.513 926.952 516.261C926.287 515.01 925.955 513.202 925.955 510.836C925.955 508.485 926.287 506.683 926.952 505.432C927.617 504.18 928.578 503.555 929.837 503.555ZM927.219 510.836C927.219 512.514 927.35 513.827 927.611 514.776L931.564 505.638C931.148 504.992 930.573 504.669 929.837 504.669C929.017 504.669 928.376 505.177 927.913 506.195C927.451 507.199 927.219 508.746 927.219 510.836ZM929.837 517.004C930.668 517.004 931.315 516.502 931.777 515.498C932.24 514.481 932.472 512.927 932.472 510.836C932.472 509.062 932.324 507.687 932.027 506.711L928.074 515.931C928.501 516.646 929.089 517.004 929.837 517.004Z" fill="url(#paint68_linear_175_198)"/>
<path d="M930.905 540.414H933.523V541.507H926.738V540.414H929.765V528.821L926.881 530.822L926.382 529.893L929.943 527.336H930.905V540.414Z" fill="url(#paint69_linear_175_198)"/>
<path d="M929.837 550.704C931.107 550.704 932.068 551.33 932.721 552.581C933.386 553.819 933.718 555.62 933.718 557.985C933.718 560.351 933.386 562.159 932.721 563.411C932.068 564.662 931.107 565.288 929.837 565.288C928.578 565.288 927.617 564.662 926.952 563.411C926.287 562.159 925.955 560.351 925.955 557.985C925.955 555.634 926.287 553.832 926.952 552.581C927.617 551.33 928.578 550.704 929.837 550.704ZM927.219 557.985C927.219 559.663 927.35 560.976 927.611 561.925L931.564 552.787C931.148 552.141 930.573 551.818 929.837 551.818C929.017 551.818 928.376 552.327 927.913 553.344C927.451 554.348 927.219 555.895 927.219 557.985ZM929.837 564.153C930.668 564.153 931.315 563.651 931.777 562.647C932.24 561.63 932.472 560.076 932.472 557.985C932.472 556.211 932.324 554.836 932.027 553.86L928.074 563.08C928.501 563.796 929.089 564.153 929.837 564.153Z" fill="url(#paint70_linear_175_198)"/>
<path d="M930.905 587.563H933.523V588.656H926.738V587.563H929.765V575.97L926.881 577.971L926.382 577.043L929.943 574.485H930.905V587.563Z" fill="url(#paint71_linear_175_198)"/>
<path d="M930.905 611.137H933.523V612.23H926.738V611.137H929.765V599.544L926.881 601.545L926.382 600.617L929.943 598.059H930.905V611.137Z" fill="url(#paint72_linear_175_198)"/>
<path d="M880.233 338.533C881.503 338.533 882.465 339.159 883.118 340.41C883.783 341.648 884.115 343.449 884.115 345.814C884.115 348.18 883.783 349.988 883.118 351.24C882.465 352.491 881.503 353.117 880.233 353.117C878.975 353.117 878.013 352.491 877.348 351.24C876.684 349.988 876.351 348.18 876.351 345.814C876.351 343.463 876.684 341.661 877.348 340.41C878.013 339.159 878.975 338.533 880.233 338.533ZM877.616 345.814C877.616 347.492 877.746 348.805 878.007 349.754L881.96 340.616C881.545 339.97 880.969 339.647 880.233 339.647C879.414 339.647 878.773 340.156 878.31 341.173C877.847 342.177 877.616 343.724 877.616 345.814ZM880.233 351.982C881.064 351.982 881.711 351.48 882.174 350.476C882.637 349.459 882.868 347.905 882.868 345.814C882.868 344.04 882.72 342.665 882.423 341.689L878.47 350.91C878.898 351.625 879.485 351.982 880.233 351.982Z" fill="url(#paint73_linear_175_198)"/>
<path d="M880.233 362.107C881.503 362.107 882.465 362.733 883.118 363.985C883.783 365.222 884.115 367.024 884.115 369.389C884.115 371.754 883.783 373.563 883.118 374.814C882.465 376.066 881.503 376.691 880.233 376.691C878.975 376.691 878.013 376.066 877.348 374.814C876.684 373.563 876.351 371.754 876.351 369.389C876.351 367.037 876.684 365.236 877.348 363.985C878.013 362.733 878.975 362.107 880.233 362.107ZM877.616 369.389C877.616 371.067 877.746 372.38 878.007 373.329L881.96 364.191C881.545 363.544 880.969 363.221 880.233 363.221C879.414 363.221 878.773 363.73 878.31 364.748C877.847 365.752 877.616 367.299 877.616 369.389ZM880.233 375.557C881.064 375.557 881.711 375.055 882.174 374.051C882.637 373.033 882.868 371.479 882.868 369.389C882.868 367.615 882.72 366.24 882.423 365.263L878.47 374.484C878.898 375.199 879.485 375.557 880.233 375.557Z" fill="url(#paint74_linear_175_198)"/>
<path d="M881.301 398.966H883.919V400.06H877.135V398.966H880.162V387.373L877.277 389.374L876.779 388.446L880.34 385.888H881.301V398.966Z" fill="url(#paint75_linear_175_198)"/>
<path d="M880.233 409.257C881.503 409.257 882.465 409.882 883.118 411.134C883.783 412.371 884.115 414.173 884.115 416.538C884.115 418.903 883.783 420.712 883.118 421.963C882.465 423.215 881.503 423.84 880.233 423.84C878.975 423.84 878.013 423.215 877.348 421.963C876.684 420.712 876.351 418.903 876.351 416.538C876.351 414.187 876.684 412.385 877.348 411.134C878.013 409.882 878.975 409.257 880.233 409.257ZM877.616 416.538C877.616 418.216 877.746 419.529 878.007 420.478L881.96 411.34C881.545 410.694 880.969 410.37 880.233 410.37C879.414 410.37 878.773 410.879 878.31 411.897C877.847 412.901 877.616 414.448 877.616 416.538ZM880.233 422.706C881.064 422.706 881.711 422.204 882.174 421.2C882.637 420.182 882.868 418.628 882.868 416.538C882.868 414.764 882.72 413.389 882.423 412.413L878.47 421.633C878.898 422.348 879.485 422.706 880.233 422.706Z" fill="url(#paint76_linear_175_198)"/>
<path d="M881.301 446.115H883.919V447.209H877.135V446.115H880.162V434.523L877.277 436.523L876.779 435.595L880.34 433.037H881.301V446.115Z" fill="url(#paint77_linear_175_198)"/>
<path d="M881.301 469.69H883.919V470.783H877.135V469.69H880.162V458.097L877.277 460.098L876.779 459.17L880.34 456.612H881.301V469.69Z" fill="url(#paint78_linear_175_198)"/>
<path d="M914.37 304.668H916.988V305.761H910.204V304.668H913.231V293.075L910.346 295.076L909.848 294.148L913.409 291.59H914.37V304.668Z" fill="url(#paint79_linear_175_198)"/>
<path d="M913.302 314.958C914.572 314.958 915.534 315.584 916.187 316.835C916.851 318.073 917.184 319.875 917.184 322.24C917.184 324.605 916.851 326.414 916.187 327.665C915.534 328.916 914.572 329.542 913.302 329.542C912.044 329.542 911.082 328.916 910.417 327.665C909.753 326.414 909.42 324.605 909.42 322.24C909.42 319.888 909.753 318.087 910.417 316.835C911.082 315.584 912.044 314.958 913.302 314.958ZM910.685 322.24C910.685 323.918 910.815 325.231 911.076 326.18L915.029 317.042C914.614 316.395 914.038 316.072 913.302 316.072C912.483 316.072 911.842 316.581 911.379 317.599C910.916 318.603 910.685 320.15 910.685 322.24ZM913.302 328.408C914.133 328.408 914.78 327.906 915.243 326.902C915.706 325.884 915.937 324.33 915.937 322.24C915.937 320.466 915.789 319.091 915.492 318.114L911.539 327.335C911.967 328.05 912.554 328.408 913.302 328.408Z" fill="url(#paint80_linear_175_198)"/>
<path d="M914.37 351.817H916.988V352.91H910.204V351.817H913.231V340.224L910.346 342.225L909.848 341.297L913.409 338.739H914.37V351.817Z" fill="url(#paint81_linear_175_198)"/>
<path d="M914.37 375.392H916.988V376.485H910.204V375.392H913.231V363.799L910.346 365.8L909.848 364.872L913.409 362.314H914.37V375.392Z" fill="url(#paint82_linear_175_198)"/>
<path d="M913.302 385.682C914.572 385.682 915.534 386.308 916.187 387.559C916.851 388.797 917.184 390.598 917.184 392.964C917.184 395.329 916.851 397.137 916.187 398.389C915.534 399.64 914.572 400.266 913.302 400.266C912.044 400.266 911.082 399.64 910.417 398.389C909.753 397.137 909.42 395.329 909.42 392.964C909.42 390.612 909.753 388.811 910.417 387.559C911.082 386.308 912.044 385.682 913.302 385.682ZM910.685 392.964C910.685 394.641 910.815 395.955 911.076 396.903L915.029 387.765C914.614 387.119 914.038 386.796 913.302 386.796C912.483 386.796 911.842 387.305 911.379 388.322C910.916 389.326 910.685 390.873 910.685 392.964ZM913.302 399.131C914.133 399.131 914.78 398.629 915.243 397.625C915.706 396.608 915.937 395.054 915.937 392.964C915.937 391.19 915.789 389.814 915.492 388.838L911.539 398.059C911.967 398.774 912.554 399.131 913.302 399.131Z" fill="url(#paint83_linear_175_198)"/>
<path d="M914.37 422.541H916.988V423.634H910.204V422.541H913.231V410.948L910.346 412.949L909.848 412.021L913.409 409.463H914.37V422.541Z" fill="url(#paint84_linear_175_198)"/>
<path d="M914.37 446.115H916.988V447.209H910.204V446.115H913.231V434.523L910.346 436.523L909.848 435.595L913.409 433.037H914.37V446.115Z" fill="url(#paint85_linear_175_198)"/>
<path d="M913.302 456.406C914.572 456.406 915.534 457.031 916.187 458.283C916.851 459.52 917.184 461.322 917.184 463.687C917.184 466.053 916.851 467.861 916.187 469.112C915.534 470.364 914.572 470.989 913.302 470.989C912.044 470.989 911.082 470.364 910.417 469.112C909.753 467.861 909.42 466.053 909.42 463.687C909.42 461.336 909.753 459.534 910.417 458.283C911.082 457.031 912.044 456.406 913.302 456.406ZM910.685 463.687C910.685 465.365 910.815 466.678 911.076 467.627L915.029 458.489C914.614 457.843 914.038 457.52 913.302 457.52C912.483 457.52 911.842 458.028 911.379 459.046C910.916 460.05 910.685 461.597 910.685 463.687ZM913.302 469.855C914.133 469.855 914.78 469.353 915.243 468.349C915.706 467.331 915.937 465.777 915.937 463.687C915.937 461.913 915.789 460.538 915.492 459.562L911.539 468.782C911.967 469.497 912.554 469.855 913.302 469.855Z" fill="url(#paint86_linear_175_198)"/>
<path d="M914.37 493.264H916.988V494.358H910.204V493.264H913.231V481.672L910.346 483.673L909.848 482.744L913.409 480.186H914.37V493.264Z" fill="url(#paint87_linear_175_198)"/>
<path d="M913.302 503.555C914.572 503.555 915.534 504.18 916.187 505.432C916.851 506.67 917.184 508.471 917.184 510.836C917.184 513.202 916.851 515.01 916.187 516.261C915.534 517.513 914.572 518.139 913.302 518.139C912.044 518.139 911.082 517.513 910.417 516.261C909.753 515.01 909.42 513.202 909.42 510.836C909.42 508.485 909.753 506.683 910.417 505.432C911.082 504.18 912.044 503.555 913.302 503.555ZM910.685 510.836C910.685 512.514 910.815 513.827 911.076 514.776L915.029 505.638C914.614 504.992 914.038 504.669 913.302 504.669C912.483 504.669 911.842 505.177 911.379 506.195C910.916 507.199 910.685 508.746 910.685 510.836ZM913.302 517.004C914.133 517.004 914.78 516.502 915.243 515.498C915.706 514.481 915.937 512.927 915.937 510.836C915.937 509.062 915.789 507.687 915.492 506.711L911.539 515.931C911.967 516.646 912.554 517.004 913.302 517.004Z" fill="url(#paint88_linear_175_198)"/>
<path d="M946.371 291.384C947.641 291.384 948.603 292.009 949.256 293.261C949.92 294.499 950.253 296.3 950.253 298.665C950.253 301.031 949.92 302.839 949.256 304.09C948.603 305.342 947.641 305.968 946.371 305.968C945.113 305.968 944.151 305.342 943.486 304.09C942.822 302.839 942.489 301.031 942.489 298.665C942.489 296.314 942.822 294.512 943.486 293.261C944.151 292.009 945.113 291.384 946.371 291.384ZM943.754 298.665C943.754 300.343 943.884 301.656 944.145 302.605L948.098 293.467C947.683 292.821 947.107 292.498 946.371 292.498C945.552 292.498 944.911 293.006 944.448 294.024C943.985 295.028 943.754 296.575 943.754 298.665ZM946.371 304.833C947.202 304.833 947.849 304.331 948.312 303.327C948.775 302.31 949.006 300.756 949.006 298.665C949.006 296.891 948.858 295.516 948.561 294.54L944.608 303.76C945.036 304.475 945.623 304.833 946.371 304.833Z" fill="url(#paint89_linear_175_198)"/>
<path d="M947.439 328.243H950.057V329.336H943.273V328.243H946.3V316.65L943.415 318.651L942.917 317.722L946.478 315.165H947.439V328.243Z" fill="url(#paint90_linear_175_198)"/>
<path d="M947.439 351.817H950.057V352.91H943.273V351.817H946.3V340.224L943.415 342.225L942.917 341.297L946.478 338.739H947.439V351.817Z" fill="url(#paint91_linear_175_198)"/>
<path d="M946.371 362.107C947.641 362.107 948.603 362.733 949.256 363.985C949.92 365.222 950.253 367.024 950.253 369.389C950.253 371.754 949.92 373.563 949.256 374.814C948.603 376.066 947.641 376.691 946.371 376.691C945.113 376.691 944.151 376.066 943.486 374.814C942.822 373.563 942.489 371.754 942.489 369.389C942.489 367.037 942.822 365.236 943.486 363.985C944.151 362.733 945.113 362.107 946.371 362.107ZM943.754 369.389C943.754 371.067 943.884 372.38 944.145 373.329L948.098 364.191C947.683 363.544 947.107 363.221 946.371 363.221C945.552 363.221 944.911 363.73 944.448 364.748C943.985 365.752 943.754 367.299 943.754 369.389ZM946.371 375.557C947.202 375.557 947.849 375.055 948.312 374.051C948.775 373.033 949.006 371.479 949.006 369.389C949.006 367.615 948.858 366.24 948.561 365.263L944.608 374.484C945.036 375.199 945.623 375.557 946.371 375.557Z" fill="url(#paint92_linear_175_198)"/>
<path d="M946.371 385.682C947.641 385.682 948.603 386.308 949.256 387.559C949.92 388.797 950.253 390.598 950.253 392.964C950.253 395.329 949.92 397.137 949.256 398.389C948.603 399.64 947.641 400.266 946.371 400.266C945.113 400.266 944.151 399.64 943.486 398.389C942.822 397.137 942.489 395.329 942.489 392.964C942.489 390.612 942.822 388.811 943.486 387.559C944.151 386.308 945.113 385.682 946.371 385.682ZM943.754 392.964C943.754 394.641 943.884 395.955 944.145 396.903L948.098 387.765C947.683 387.119 947.107 386.796 946.371 386.796C945.552 386.796 944.911 387.305 944.448 388.322C943.985 389.326 943.754 390.873 943.754 392.964ZM946.371 399.131C947.202 399.131 947.849 398.629 948.312 397.625C948.775 396.608 949.006 395.054 949.006 392.964C949.006 391.19 948.858 389.814 948.561 388.838L944.608 398.059C945.036 398.774 945.623 399.131 946.371 399.131Z" fill="url(#paint93_linear_175_198)"/>
</g>
<defs>
<filter id="filter0_f_175_198" x="-463.19" y="-428.19" width="1994.38" height="1524.39" filterUnits="userSpaceOnUse" color-interpolation-filters="sRGB">
<feFlood flood-opacity="0" result="BackgroundImageFix"/>
<feBlend mode="normal" in="SourceGraphic" in2="BackgroundImageFix" result="shape"/>
<feGaussianBlur stdDeviation="200.095" result="effect1_foregroundBlur_175_198"/>
</filter>
<linearGradient id="paint0_linear_175_198" x1="124.425" y1="578.099" x2="124.425" y2="900.159" gradientUnits="userSpaceOnUse">
<stop stop-color="#F7DD43"/>
<stop offset="1" stop-color="#F7DD43" stop-opacity="0"/>
</linearGradient>
<linearGradient id="paint1_linear_175_198" x1="124.425" y1="578.099" x2="124.425" y2="900.159" gradientUnits="userSpaceOnUse">
<stop stop-color="#F7DD43"/>
<stop offset="1" stop-color="#F7DD43" stop-opacity="0"/>
</linearGradient>
<linearGradient id="paint2_linear_175_198" x1="124.425" y1="578.099" x2="124.425" y2="900.159" gradientUnits="userSpaceOnUse">
<stop stop-color="#F7DD43"/>
<stop offset="1" stop-color="#F7DD43" stop-opacity="0"/>
</linearGradient>
<linearGradient id="paint3_linear_175_198" x1="124.425" y1="578.099" x2="124.425" y2="900.159" gradientUnits="userSpaceOnUse">
<stop stop-color="#F7DD43"/>
<stop offset="1" stop-color="#F7DD43" stop-opacity="0"/>
</linearGradient>
<linearGradient id="paint4_linear_175_198" x1="124.425" y1="578.099" x2="124.425" y2="900.159" gradientUnits="userSpaceOnUse">
<stop stop-color="#F7DD43"/>
<stop offset="1" stop-color="#F7DD43" stop-opacity="0"/>
</linearGradient>
<linearGradient id="paint5_linear_175_198" x1="124.425" y1="578.099" x2="124.425" y2="900.159" gradientUnits="userSpaceOnUse">
<stop stop-color="#F7DD43"/>
<stop offset="1" stop-color="#F7DD43" stop-opacity="0"/>
</linearGradient>
<linearGradient id="paint6_linear_175_198" x1="124.425" y1="578.099" x2="124.425" y2="900.159" gradientUnits="userSpaceOnUse">
<stop stop-color="#F7DD43"/>
<stop offset="1" stop-color="#F7DD43" stop-opacity="0"/>
</linearGradient>
<linearGradient id="paint7_linear_175_198" x1="124.425" y1="578.099" x2="124.425" y2="900.159" gradientUnits="userSpaceOnUse">
<stop stop-color="#F7DD43"/>
<stop offset="1" stop-color="#F7DD43" stop-opacity="0"/>
</linearGradient>
<linearGradient id="paint8_linear_175_198" x1="124.425" y1="578.099" x2="124.425" y2="900.159" gradientUnits="userSpaceOnUse">
<stop stop-color="#F7DD43"/>
<stop offset="1" stop-color="#F7DD43" stop-opacity="0"/>
</linearGradient>
<linearGradient id="paint9_linear_175_198" x1="124.425" y1="578.099" x2="124.425" y2="900.159" gradientUnits="userSpaceOnUse">
<stop stop-color="#F7DD43"/>
<stop offset="1" stop-color="#F7DD43" stop-opacity="0"/>
</linearGradient>
<linearGradient id="paint10_linear_175_198" x1="124.425" y1="578.099" x2="124.425" y2="900.159" gradientUnits="userSpaceOnUse">
<stop stop-color="#F7DD43"/>
<stop offset="1" stop-color="#F7DD43" stop-opacity="0"/>
</linearGradient>
<linearGradient id="paint11_linear_175_198" x1="124.425" y1="578.099" x2="124.425" y2="900.159" gradientUnits="userSpaceOnUse">
<stop stop-color="#F7DD43"/>
<stop offset="1" stop-color="#F7DD43" stop-opacity="0"/>
</linearGradient>
<linearGradient id="paint12_linear_175_198" x1="124.425" y1="578.099" x2="124.425" y2="900.159" gradientUnits="userSpaceOnUse">
<stop stop-color="#F7DD43"/>
<stop offset="1" stop-color="#F7DD43" stop-opacity="0"/>
</linearGradient>
<linearGradient id="paint13_linear_175_198" x1="124.425" y1="578.099" x2="124.425" y2="900.159" gradientUnits="userSpaceOnUse">
<stop stop-color="#F7DD43"/>
<stop offset="1" stop-color="#F7DD43" stop-opacity="0"/>
</linearGradient>
<linearGradient id="paint14_linear_175_198" x1="124.425" y1="578.099" x2="124.425" y2="900.159" gradientUnits="userSpaceOnUse">
<stop stop-color="#F7DD43"/>
<stop offset="1" stop-color="#F7DD43" stop-opacity="0"/>
</linearGradient>
<linearGradient id="paint15_linear_175_198" x1="124.425" y1="578.099" x2="124.425" y2="900.159" gradientUnits="userSpaceOnUse">
<stop stop-color="#F7DD43"/>
<stop offset="1" stop-color="#F7DD43" stop-opacity="0"/>
</linearGradient>
<linearGradient id="paint16_linear_175_198" x1="124.425" y1="578.099" x2="124.425" y2="900.159" gradientUnits="userSpaceOnUse">
<stop stop-color="#F7DD43"/>
<stop offset="1" stop-color="#F7DD43" stop-opacity="0"/>
</linearGradient>
<linearGradient id="paint17_linear_175_198" x1="124.425" y1="578.099" x2="124.425" y2="900.159" gradientUnits="userSpaceOnUse">
<stop stop-color="#F7DD43"/>
<stop offset="1" stop-color="#F7DD43" stop-opacity="0"/>
</linearGradient>
<linearGradient id="paint18_linear_175_198" x1="124.425" y1="578.099" x2="124.425" y2="900.159" gradientUnits="userSpaceOnUse">
<stop stop-color="#F7DD43"/>
<stop offset="1" stop-color="#F7DD43" stop-opacity="0"/>
</linearGradient>
<linearGradient id="paint19_linear_175_198" x1="124.425" y1="578.099" x2="124.425" y2="900.159" gradientUnits="userSpaceOnUse">
<stop stop-color="#F7DD43"/>
<stop offset="1" stop-color="#F7DD43" stop-opacity="0"/>
</linearGradient>
<linearGradient id="paint20_linear_175_198" x1="124.425" y1="578.099" x2="124.425" y2="900.159" gradientUnits="userSpaceOnUse">
<stop stop-color="#F7DD43"/>
<stop offset="1" stop-color="#F7DD43" stop-opacity="0"/>
</linearGradient>
<linearGradient id="paint21_linear_175_198" x1="124.425" y1="578.099" x2="124.425" y2="900.159" gradientUnits="userSpaceOnUse">
<stop stop-color="#F7DD43"/>
<stop offset="1" stop-color="#F7DD43" stop-opacity="0"/>
</linearGradient>
<linearGradient id="paint22_linear_175_198" x1="124.425" y1="578.099" x2="124.425" y2="900.159" gradientUnits="userSpaceOnUse">
<stop stop-color="#F7DD43"/>
<stop offset="1" stop-color="#F7DD43" stop-opacity="0"/>
</linearGradient>
<linearGradient id="paint23_linear_175_198" x1="124.425" y1="578.099" x2="124.425" y2="900.159" gradientUnits="userSpaceOnUse">
<stop stop-color="#F7DD43"/>
<stop offset="1" stop-color="#F7DD43" stop-opacity="0"/>
</linearGradient>
<linearGradient id="paint24_linear_175_198" x1="124.425" y1="578.099" x2="124.425" y2="900.159" gradientUnits="userSpaceOnUse">
<stop stop-color="#F7DD43"/>
<stop offset="1" stop-color="#F7DD43" stop-opacity="0"/>
</linearGradient>
<linearGradient id="paint25_linear_175_198" x1="124.425" y1="578.099" x2="124.425" y2="900.159" gradientUnits="userSpaceOnUse">
<stop stop-color="#F7DD43"/>
<stop offset="1" stop-color="#F7DD43" stop-opacity="0"/>
</linearGradient>
<linearGradient id="paint26_linear_175_198" x1="124.425" y1="578.099" x2="124.425" y2="900.159" gradientUnits="userSpaceOnUse">
<stop stop-color="#F7DD43"/>
<stop offset="1" stop-color="#F7DD43" stop-opacity="0"/>
</linearGradient>
<linearGradient id="paint27_linear_175_198" x1="124.425" y1="578.099" x2="124.425" y2="900.159" gradientUnits="userSpaceOnUse">
<stop stop-color="#F7DD43"/>
<stop offset="1" stop-color="#F7DD43" stop-opacity="0"/>
</linearGradient>
<linearGradient id="paint28_linear_175_198" x1="124.425" y1="578.099" x2="124.425" y2="900.159" gradientUnits="userSpaceOnUse">
<stop stop-color="#F7DD43"/>
<stop offset="1" stop-color="#F7DD43" stop-opacity="0"/>
</linearGradient>
<linearGradient id="paint29_linear_175_198" x1="124.425" y1="578.099" x2="124.425" y2="900.159" gradientUnits="userSpaceOnUse">
<stop stop-color="#F7DD43"/>
<stop offset="1" stop-color="#F7DD43" stop-opacity="0"/>
</linearGradient>
<linearGradient id="paint30_linear_175_198" x1="124.425" y1="578.099" x2="124.425" y2="900.159" gradientUnits="userSpaceOnUse">
<stop stop-color="#F7DD43"/>
<stop offset="1" stop-color="#F7DD43" stop-opacity="0"/>
</linearGradient>
<linearGradient id="paint31_linear_175_198" x1="124.425" y1="578.099" x2="124.425" y2="900.159" gradientUnits="userSpaceOnUse">
<stop stop-color="#F7DD43"/>
<stop offset="1" stop-color="#F7DD43" stop-opacity="0"/>
</linearGradient>
<linearGradient id="paint32_linear_175_198" x1="124.425" y1="578.099" x2="124.425" y2="900.159" gradientUnits="userSpaceOnUse">
<stop stop-color="#F7DD43"/>
<stop offset="1" stop-color="#F7DD43" stop-opacity="0"/>
</linearGradient>
<linearGradient id="paint33_linear_175_198" x1="124.425" y1="578.099" x2="124.425" y2="900.159" gradientUnits="userSpaceOnUse">
<stop stop-color="#F7DD43"/>
<stop offset="1" stop-color="#F7DD43" stop-opacity="0"/>
</linearGradient>
<linearGradient id="paint34_linear_175_198" x1="124.425" y1="578.099" x2="124.425" y2="900.159" gradientUnits="userSpaceOnUse">
<stop stop-color="#F7DD43"/>
<stop offset="1" stop-color="#F7DD43" stop-opacity="0"/>
</linearGradient>
<linearGradient id="paint35_linear_175_198" x1="124.425" y1="578.099" x2="124.425" y2="900.159" gradientUnits="userSpaceOnUse">
<stop stop-color="#F7DD43"/>
<stop offset="1" stop-color="#F7DD43" stop-opacity="0"/>
</linearGradient>
<linearGradient id="paint36_linear_175_198" x1="124.425" y1="578.099" x2="124.425" y2="900.159" gradientUnits="userSpaceOnUse">
<stop stop-color="#F7DD43"/>
<stop offset="1" stop-color="#F7DD43" stop-opacity="0"/>
</linearGradient>
<linearGradient id="paint37_linear_175_198" x1="124.425" y1="578.099" x2="124.425" y2="900.159" gradientUnits="userSpaceOnUse">
<stop stop-color="#F7DD43"/>
<stop offset="1" stop-color="#F7DD43" stop-opacity="0"/>
</linearGradient>
<linearGradient id="paint38_linear_175_198" x1="124.425" y1="578.099" x2="124.425" y2="900.159" gradientUnits="userSpaceOnUse">
<stop stop-color="#F7DD43"/>
<stop offset="1" stop-color="#F7DD43" stop-opacity="0"/>
</linearGradient>
<linearGradient id="paint39_linear_175_198" x1="124.425" y1="578.099" x2="124.425" y2="900.159" gradientUnits="userSpaceOnUse">
<stop stop-color="#F7DD43"/>
<stop offset="1" stop-color="#F7DD43" stop-opacity="0"/>
</linearGradient>
<linearGradient id="paint40_linear_175_198" x1="124.425" y1="578.099" x2="124.425" y2="900.159" gradientUnits="userSpaceOnUse">
<stop stop-color="#F7DD43"/>
<stop offset="1" stop-color="#F7DD43" stop-opacity="0"/>
</linearGradient>
<linearGradient id="paint41_linear_175_198" x1="124.425" y1="578.099" x2="124.425" y2="900.159" gradientUnits="userSpaceOnUse">
<stop stop-color="#F7DD43"/>
<stop offset="1" stop-color="#F7DD43" stop-opacity="0"/>
</linearGradient>
<linearGradient id="paint42_linear_175_198" x1="124.425" y1="578.099" x2="124.425" y2="900.159" gradientUnits="userSpaceOnUse">
<stop stop-color="#F7DD43"/>
<stop offset="1" stop-color="#F7DD43" stop-opacity="0"/>
</linearGradient>
<linearGradient id="paint43_linear_175_198" x1="124.425" y1="578.099" x2="124.425" y2="900.159" gradientUnits="userSpaceOnUse">
<stop stop-color="#F7DD43"/>
<stop offset="1" stop-color="#F7DD43" stop-opacity="0"/>
</linearGradient>
<linearGradient id="paint44_linear_175_198" x1="124.425" y1="578.099" x2="124.425" y2="900.159" gradientUnits="userSpaceOnUse">
<stop stop-color="#F7DD43"/>
<stop offset="1" stop-color="#F7DD43" stop-opacity="0"/>
</linearGradient>
<linearGradient id="paint45_linear_175_198" x1="124.425" y1="578.099" x2="124.425" y2="900.159" gradientUnits="userSpaceOnUse">
<stop stop-color="#F7DD43"/>
<stop offset="1" stop-color="#F7DD43" stop-opacity="0"/>
</linearGradient>
<linearGradient id="paint46_linear_175_198" x1="124.425" y1="578.099" x2="124.425" y2="900.159" gradientUnits="userSpaceOnUse">
<stop stop-color="#F7DD43"/>
<stop offset="1" stop-color="#F7DD43" stop-opacity="0"/>
</linearGradient>
<linearGradient id="paint47_linear_175_198" x1="913.302" y1="267.809" x2="913.302" y2="576.876" gradientUnits="userSpaceOnUse">
<stop stop-color="#F7DD43"/>
<stop offset="1" stop-color="#F7DD43" stop-opacity="0"/>
</linearGradient>
<linearGradient id="paint48_linear_175_198" x1="913.302" y1="267.809" x2="913.302" y2="576.876" gradientUnits="userSpaceOnUse">
<stop stop-color="#F7DD43"/>
<stop offset="1" stop-color="#F7DD43" stop-opacity="0"/>
</linearGradient>
<linearGradient id="paint49_linear_175_198" x1="913.302" y1="267.809" x2="913.302" y2="576.876" gradientUnits="userSpaceOnUse">
<stop stop-color="#F7DD43"/>
<stop offset="1" stop-color="#F7DD43" stop-opacity="0"/>
</linearGradient>
<linearGradient id="paint50_linear_175_198" x1="913.302" y1="267.809" x2="913.302" y2="576.876" gradientUnits="userSpaceOnUse">
<stop stop-color="#F7DD43"/>
<stop offset="1" stop-color="#F7DD43" stop-opacity="0"/>
</linearGradient>
<linearGradient id="paint51_linear_175_198" x1="913.302" y1="267.809" x2="913.302" y2="576.876" gradientUnits="userSpaceOnUse">
<stop stop-color="#F7DD43"/>
<stop offset="1" stop-color="#F7DD43" stop-opacity="0"/>
</linearGradient>
<linearGradient id="paint52_linear_175_198" x1="913.302" y1="267.809" x2="913.302" y2="576.876" gradientUnits="userSpaceOnUse">
<stop stop-color="#F7DD43"/>
<stop offset="1" stop-color="#F7DD43" stop-opacity="0"/>
</linearGradient>
<linearGradient id="paint53_linear_175_198" x1="913.302" y1="267.809" x2="913.302" y2="576.876" gradientUnits="userSpaceOnUse">
<stop stop-color="#F7DD43"/>
<stop offset="1" stop-color="#F7DD43" stop-opacity="0"/>
</linearGradient>
<linearGradient id="paint54_linear_175_198" x1="913.302" y1="267.809" x2="913.302" y2="576.876" gradientUnits="userSpaceOnUse">
<stop stop-color="#F7DD43"/>
<stop offset="1" stop-color="#F7DD43" stop-opacity="0"/>
</linearGradient>
<linearGradient id="paint55_linear_175_198" x1="913.302" y1="267.809" x2="913.302" y2="576.876" gradientUnits="userSpaceOnUse">
<stop stop-color="#F7DD43"/>
<stop offset="1" stop-color="#F7DD43" stop-opacity="0"/>
</linearGradient>
<linearGradient id="paint56_linear_175_198" x1="913.302" y1="267.809" x2="913.302" y2="576.876" gradientUnits="userSpaceOnUse">
<stop stop-color="#F7DD43"/>
<stop offset="1" stop-color="#F7DD43" stop-opacity="0"/>
</linearGradient>
<linearGradient id="paint57_linear_175_198" x1="913.302" y1="267.809" x2="913.302" y2="576.876" gradientUnits="userSpaceOnUse">
<stop stop-color="#F7DD43"/>
<stop offset="1" stop-color="#F7DD43" stop-opacity="0"/>
</linearGradient>
<linearGradient id="paint58_linear_175_198" x1="913.302" y1="267.809" x2="913.302" y2="576.876" gradientUnits="userSpaceOnUse">
<stop stop-color="#F7DD43"/>
<stop offset="1" stop-color="#F7DD43" stop-opacity="0"/>
</linearGradient>
<linearGradient id="paint59_linear_175_198" x1="913.302" y1="267.809" x2="913.302" y2="576.876" gradientUnits="userSpaceOnUse">
<stop stop-color="#F7DD43"/>
<stop offset="1" stop-color="#F7DD43" stop-opacity="0"/>
</linearGradient>
<linearGradient id="paint60_linear_175_198" x1="913.302" y1="267.809" x2="913.302" y2="576.876" gradientUnits="userSpaceOnUse">
<stop stop-color="#F7DD43"/>
<stop offset="1" stop-color="#F7DD43" stop-opacity="0"/>
</linearGradient>
<linearGradient id="paint61_linear_175_198" x1="913.302" y1="267.809" x2="913.302" y2="576.876" gradientUnits="userSpaceOnUse">
<stop stop-color="#F7DD43"/>
<stop offset="1" stop-color="#F7DD43" stop-opacity="0"/>
</linearGradient>
<linearGradient id="paint62_linear_175_198" x1="913.302" y1="267.809" x2="913.302" y2="576.876" gradientUnits="userSpaceOnUse">
<stop stop-color="#F7DD43"/>
<stop offset="1" stop-color="#F7DD43" stop-opacity="0"/>
</linearGradient>
<linearGradient id="paint63_linear_175_198" x1="913.302" y1="267.809" x2="913.302" y2="576.876" gradientUnits="userSpaceOnUse">
<stop stop-color="#F7DD43"/>
<stop offset="1" stop-color="#F7DD43" stop-opacity="0"/>
</linearGradient>
<linearGradient id="paint64_linear_175_198" x1="913.302" y1="267.809" x2="913.302" y2="576.876" gradientUnits="userSpaceOnUse">
<stop stop-color="#F7DD43"/>
<stop offset="1" stop-color="#F7DD43" stop-opacity="0"/>
</linearGradient>
<linearGradient id="paint65_linear_175_198" x1="913.302" y1="267.809" x2="913.302" y2="576.876" gradientUnits="userSpaceOnUse">
<stop stop-color="#F7DD43"/>
<stop offset="1" stop-color="#F7DD43" stop-opacity="0"/>
</linearGradient>
<linearGradient id="paint66_linear_175_198" x1="913.302" y1="267.809" x2="913.302" y2="576.876" gradientUnits="userSpaceOnUse">
<stop stop-color="#F7DD43"/>
<stop offset="1" stop-color="#F7DD43" stop-opacity="0"/>
</linearGradient>
<linearGradient id="paint67_linear_175_198" x1="913.302" y1="267.809" x2="913.302" y2="576.876" gradientUnits="userSpaceOnUse">
<stop stop-color="#F7DD43"/>
<stop offset="1" stop-color="#F7DD43" stop-opacity="0"/>
</linearGradient>
<linearGradient id="paint68_linear_175_198" x1="913.302" y1="267.809" x2="913.302" y2="576.876" gradientUnits="userSpaceOnUse">
<stop stop-color="#F7DD43"/>
<stop offset="1" stop-color="#F7DD43" stop-opacity="0"/>
</linearGradient>
<linearGradient id="paint69_linear_175_198" x1="913.302" y1="267.809" x2="913.302" y2="576.876" gradientUnits="userSpaceOnUse">
<stop stop-color="#F7DD43"/>
<stop offset="1" stop-color="#F7DD43" stop-opacity="0"/>
</linearGradient>
<linearGradient id="paint70_linear_175_198" x1="913.302" y1="267.809" x2="913.302" y2="576.876" gradientUnits="userSpaceOnUse">
<stop stop-color="#F7DD43"/>
<stop offset="1" stop-color="#F7DD43" stop-opacity="0"/>
</linearGradient>
<linearGradient id="paint71_linear_175_198" x1="913.302" y1="267.809" x2="913.302" y2="576.876" gradientUnits="userSpaceOnUse">
<stop stop-color="#F7DD43"/>
<stop offset="1" stop-color="#F7DD43" stop-opacity="0"/>
</linearGradient>
<linearGradient id="paint72_linear_175_198" x1="913.302" y1="267.809" x2="913.302" y2="576.876" gradientUnits="userSpaceOnUse">
<stop stop-color="#F7DD43"/>
<stop offset="1" stop-color="#F7DD43" stop-opacity="0"/>
</linearGradient>
<linearGradient id="paint73_linear_175_198" x1="913.302" y1="267.809" x2="913.302" y2="576.876" gradientUnits="userSpaceOnUse">
<stop stop-color="#F7DD43"/>
<stop offset="1" stop-color="#F7DD43" stop-opacity="0"/>
</linearGradient>
<linearGradient id="paint74_linear_175_198" x1="913.302" y1="267.809" x2="913.302" y2="576.876" gradientUnits="userSpaceOnUse">
<stop stop-color="#F7DD43"/>
<stop offset="1" stop-color="#F7DD43" stop-opacity="0"/>
</linearGradient>
<linearGradient id="paint75_linear_175_198" x1="913.302" y1="267.809" x2="913.302" y2="576.876" gradientUnits="userSpaceOnUse">
<stop stop-color="#F7DD43"/>
<stop offset="1" stop-color="#F7DD43" stop-opacity="0"/>
</linearGradient>
<linearGradient id="paint76_linear_175_198" x1="913.302" y1="267.809" x2="913.302" y2="576.876" gradientUnits="userSpaceOnUse">
<stop stop-color="#F7DD43"/>
<stop offset="1" stop-color="#F7DD43" stop-opacity="0"/>
</linearGradient>
<linearGradient id="paint77_linear_175_198" x1="913.302" y1="267.809" x2="913.302" y2="576.876" gradientUnits="userSpaceOnUse">
<stop stop-color="#F7DD43"/>
<stop offset="1" stop-color="#F7DD43" stop-opacity="0"/>
</linearGradient>
<linearGradient id="paint78_linear_175_198" x1="913.302" y1="267.809" x2="913.302" y2="576.876" gradientUnits="userSpaceOnUse">
<stop stop-color="#F7DD43"/>
<stop offset="1" stop-color="#F7DD43" stop-opacity="0"/>
</linearGradient>
<linearGradient id="paint79_linear_175_198" x1="913.302" y1="267.809" x2="913.302" y2="576.876" gradientUnits="userSpaceOnUse">
<stop stop-color="#F7DD43"/>
<stop offset="1" stop-color="#F7DD43" stop-opacity="0"/>
</linearGradient>
<linearGradient id="paint80_linear_175_198" x1="913.302" y1="267.809" x2="913.302" y2="576.876" gradientUnits="userSpaceOnUse">
<stop stop-color="#F7DD43"/>
<stop offset="1" stop-color="#F7DD43" stop-opacity="0"/>
</linearGradient>
<linearGradient id="paint81_linear_175_198" x1="913.302" y1="267.809" x2="913.302" y2="576.876" gradientUnits="userSpaceOnUse">
<stop stop-color="#F7DD43"/>
<stop offset="1" stop-color="#F7DD43" stop-opacity="0"/>
</linearGradient>
<linearGradient id="paint82_linear_175_198" x1="913.302" y1="267.809" x2="913.302" y2="576.876" gradientUnits="userSpaceOnUse">
<stop stop-color="#F7DD43"/>
<stop offset="1" stop-color="#F7DD43" stop-opacity="0"/>
</linearGradient>
<linearGradient id="paint83_linear_175_198" x1="913.302" y1="267.809" x2="913.302" y2="576.876" gradientUnits="userSpaceOnUse">
<stop stop-color="#F7DD43"/>
<stop offset="1" stop-color="#F7DD43" stop-opacity="0"/>
</linearGradient>
<linearGradient id="paint84_linear_175_198" x1="913.302" y1="267.809" x2="913.302" y2="576.876" gradientUnits="userSpaceOnUse">
<stop stop-color="#F7DD43"/>
<stop offset="1" stop-color="#F7DD43" stop-opacity="0"/>
</linearGradient>
<linearGradient id="paint85_linear_175_198" x1="913.302" y1="267.809" x2="913.302" y2="576.876" gradientUnits="userSpaceOnUse">
<stop stop-color="#F7DD43"/>
<stop offset="1" stop-color="#F7DD43" stop-opacity="0"/>
</linearGradient>
<linearGradient id="paint86_linear_175_198" x1="913.302" y1="267.809" x2="913.302" y2="576.876" gradientUnits="userSpaceOnUse">
<stop stop-color="#F7DD43"/>
<stop offset="1" stop-color="#F7DD43" stop-opacity="0"/>
</linearGradient>
<linearGradient id="paint87_linear_175_198" x1="913.302" y1="267.809" x2="913.302" y2="576.876" gradientUnits="userSpaceOnUse">
<stop stop-color="#F7DD43"/>
<stop offset="1" stop-color="#F7DD43" stop-opacity="0"/>
</linearGradient>
<linearGradient id="paint88_linear_175_198" x1="913.302" y1="267.809" x2="913.302" y2="576.876" gradientUnits="userSpaceOnUse">
<stop stop-color="#F7DD43"/>
<stop offset="1" stop-color="#F7DD43" stop-opacity="0"/>
</linearGradient>
<linearGradient id="paint89_linear_175_198" x1="913.302" y1="267.809" x2="913.302" y2="576.876" gradientUnits="userSpaceOnUse">
<stop stop-color="#F7DD43"/>
<stop offset="1" stop-color="#F7DD43" stop-opacity="0"/>
</linearGradient>
<linearGradient id="paint90_linear_175_198" x1="913.302" y1="267.809" x2="913.302" y2="576.876" gradientUnits="userSpaceOnUse">
<stop stop-color="#F7DD43"/>
<stop offset="1" stop-color="#F7DD43" stop-opacity="0"/>
</linearGradient>
<linearGradient id="paint91_linear_175_198" x1="913.302" y1="267.809" x2="913.302" y2="576.876" gradientUnits="userSpaceOnUse">
<stop stop-color="#F7DD43"/>
<stop offset="1" stop-color="#F7DD43" stop-opacity="0"/>
</linearGradient>
<linearGradient id="paint92_linear_175_198" x1="913.302" y1="267.809" x2="913.302" y2="576.876" gradientUnits="userSpaceOnUse">
<stop stop-color="#F7DD43"/>
<stop offset="1" stop-color="#F7DD43" stop-opacity="0"/>
</linearGradient>
<linearGradient id="paint93_linear_175_198" x1="913.302" y1="267.809" x2="913.302" y2="576.876" gradientUnits="userSpaceOnUse">
<stop stop-color="#F7DD43"/>
<stop offset="1" stop-color="#F7DD43" stop-opacity="0"/>
</linearGradient>
</defs>
</svg>


